<?xml version="1.0" encoding="utf-8"?>
<!-- Generator: Adobe Illustrator 27.8.0, SVG Export Plug-In . SVG Version: 6.00 Build 0)  -->
<svg version="1.1" id="Layer_1" xmlns="http://www.w3.org/2000/svg" xmlns:xlink="http://www.w3.org/1999/xlink" x="0px" y="0px"
	 viewBox="0 0 696 670.6" style="enable-background:new 0 0 696 670.6;" xml:space="preserve">
<style type="text/css">
	.st0{fill:#9B9B9B;}
	.st1{fill:#FFFFFF;}
    .st2{fill:#9BFF49;}
    .st3{fill:#FFCF4C;}
    .st4{fill:#FF6232;}
    .st5{fill:#FF0F33;}
    .st6{fill:#AE00FF;}
</style>
<g>
	<path class="st0" d="M295.9,253c-1.2-3-1.8-6.4-1.8-9.7c0-6,0.6-11.9,0.9-17.9c0.1-0.3,0.3-0.7,0.4-1c-0.4-2.3-1.1-4.7-1.3-7
		c-0.5-6.4-0.9-12.8-1.1-19.2c-0.2-4.3,0-8.6-0.1-12.8l-1.9-15.1c-0.2-4.3-1.9-8.1-4-11.8c-0.3-1-0.6-2-0.9-3
		c0.1-0.5-6.1-6.9-9.3-9.7c-4.2-3.9-9.5-5.1-14.9-6.2c-1.8-0.3-3.7-0.3-5.3-1c-6.2-2.7-12.4-5.5-18.5-8.5c-0.9-0.4-4-0.7-5.1-2.4
		c-2.5-1.6-5-3.3-7.5-4.8c-4.4-2.7-8.4-5.6-7.7-11.6c0.1-0.6-0.4-1.3-0.4-1.9c-0.4-4.1-1.5-8.2,1.8-11.8c0.8-0.8,0.5-2.5,0.8-3.8
		c0.7-2.9,0.9-5.8,3.4-8.1c4.8-4.4,4.5-10.6,2.9-15.8c-1.2-4-1.4-7.6-0.8-11.6c1-6.4,0.9-12.7-3.8-17.8c-2.5-2.7-3-6.4-5.3-9
		c-0.8-0.9-1.7-1.9-2.8-2.5c-1.3-0.7-2.9-0.8-4.3-1.3c-0.2-0.1-0.3-0.5-0.5-0.7c0.4-0.6,0.8-1.2,1.8-2.7c-4-0.2-7.3-0.3-10.5-0.5
		c-3.7-0.2-3.9-0.6-3.2-4.6c-7.1,1.2-12.4,6-18.6,9c-1.9,0.9-3.9,1.6-5.4,2.9c-4,3.3-6.1,8.2-6.6,13c-0.8,6.9,0,13.9,0,20.9
		c0,1.4-0.3,2.8-0.6,4.1c-1.4,5.9-0.5,11.7,3.1,16.5c1.5,2.1,2.7,4,3.3,6.4c0.5,2.1,1.2,4.2,2.2,6.1c2.8,5.7,2.1,11.6,0.7,17.5
		c0.7,0.7-7.4,6.5-10.9,8.3c-4.7,2.3-27.6,15-34.4,16.7c-0.6,0.2-1.3,0.1-2,0.1c-11.5,0-23.3,10-26.3,19.9
		c-1.4,4.7-1.8,9.8-2.3,14.7c-0.4,4.1-0.4,8.3-0.4,12.4c0,1.1,0.7,2.1,1,3.2c0.9,5.6,0.2,11.1-0.7,16.6c-0.2,0-0.3,0-0.5,0l0,0
		c0,0.4,0,0.9-0.1,1.3c0,0.4-0.1,0.8-0.2,1.2l0,0c0.1,0,0.3,0,0.4,0c0.1,1.5,0.3,2.5,0.1,3.4c-1.1,6.1-0.8,12.2-0.1,18.3
		c0.6,5.9,1.3,11.9-0.6,17.8c-0.2-0.2-2,6-2.5,8c-1.2,5.7-3.2,13.1-3.5,19.9c0.3,7.2,0.5,14.5,1.1,21.7c0.3,4.4,2.8,23.6,3.5,27.7
		c1.6,8.5,0.7,17.2,3.3,25.6c0.1,0.5,0.1,1,0,1.5c-0.5,4.9-0.6,10-1.7,14.8c-1.5,6.3-0.5,11.7,3.4,16.8c0.9,1.2,1.7,2.5,2.5,3.7
		c3.7,5.5,5.5,6.2,12,4.9c0.7-0.1,1.3-0.3,1.9-0.6c8.8-3.7,11.1-8.4,6.4-14.9c-0.3-0.4-0.6-0.8-0.9-1.2c-1.6-2.9-2.6-5.8-1.9-9.4
		c1.1-5.9-0.5-11.3-5.1-15.3c-2.4-2.1-3.1-4.6-2.3-7.6c0.2-1,0.6-1.9,0.6-2.9c0.6-11.9,3.7-23.2,6.9-34.6c2.6-9,3.8-18.2,4.1-27.5
		c0.2-5.3,0.2-10.7,0-16c-0.2-5.6,1-10.8,2.3-16.2c3-12.4,5.9-24.8,5.8-37.7c0-3.5,0.7-7,1.1-10.5c2.6,3.6,4.5,7.3,5.9,11.2
		c2.5,6.5,5,13,6.9,19.7c2.9,10.3,2.1,21.1,2.8,31.6c0.6,7.7-0.8,15.6-0.7,23.3c0.1,7.9-2.7,14.9-5.2,22.2c-2.2,6.6-4.2,13.3-6,20
		c-2.5,9.6-4.5,19.4-5.2,29.3c-0.7,9.4-1.9,18.8-2.8,28.2c-0.1,0.8-0.2,1.6-0.3,2.4c0.1,1.5,0.3,2.9,0.2,4.3
		c-0.6,9.2-1.4,18.4-1.7,27.6c-0.3,7.6,0.8,29.1,0.9,30.8c0.5,7.3,0.2,14.7,1.3,21.8c0.7,4.6,0,8.5-1.9,12.5c-1,2.3-1.7,4.7-2.5,7
		c-3.4,10.3-5.4,20.8-6.2,31.6c-0.6,7.7-0.2,15.2,1.1,22.6c2.8,15.2,6,30.2,9,45.4c1.2,6.2,2.4,12.6,0.2,18.7
		c-1.5,4.2-2.4,8.3-2,12.6c0.2,2.3-0.6,3.9-2.4,5.6c-3.4,3.1-6.8,6.4-9.6,10.1c-3.9,5.2-2.4,9.2,3.8,10.7c8.5,2.1,17,1.9,25.6,0.4
		c1.8-0.3,3.6-0.8,5.3-1.4c3.6-1.4,5.9-5.1,4.7-8.8c-3.3-10.7-2.1-21.6-2.2-32.5c0-6.6,0.7-13.3,1.9-19.7c1.7-9.1,3.5-18.3,6.4-27.1
		c2.1-6.4,3.3-12.9,3.4-19.5c0.1-7.6-0.5-15.2-1-22.9c-0.4-5.4-1.4-10.8-1.8-16.3c-0.5-9.1-0.6-18.1,4.5-26.5
		c4.9-8.3,8.1-17.5,10-27c1.9-9.2,3.5-18.6,5.5-27.8c3.3-15.2,6.9-30.4,10.4-45.6c0.8-3.3,1.7-6.6,2.6-9.8
		c1.9,5.8,2.9,11.5,4.2,17.1c3.5,16.2,7,32.4,10.5,48.6c0.8,3.7,1.8,7.5,2.1,11.2c0.6,7.2,2.6,14.1,5.5,20.6
		c3,6.6,6.5,13.1,9.8,19.6c0.7,1.5,1.7,3.1,1.7,4.6c0.2,5.5,0.2,11-0.1,16.5c-0.4,8.3-1.3,16.5-1.8,24.8c-0.2,3.3,0.1,6.7-0.1,10
		c-0.3,9.7-0.2,19.3,4.3,28.3c0.4,0.9,0.5,1.9,0.8,2.9c5.3,17.9,5,36.4,5.8,54.7c0.2,4.9-1.4,9.8-2.3,14.7
		c-1.1,5.7,0.8,9.4,6.1,10.6c9.7,2.1,19.5,2.4,29.2,0.4c6.6-1.3,8.1-5.1,4.1-10.4c-2.7-3.7-6.3-6.7-9.6-10c-1.5-1.5-3.9-2.8-3.1-5.2
		c1.9-5.6-0.5-10.4-2.2-15.4c-0.7-2.3-1.1-4.9-0.6-7.3c2.6-14.2,5.6-28.3,8.3-42.5c1.1-5.7,1.5-11.5,2.2-17.2
		c0.8-0.9,1.5-1.9,2.3-2.8c0-0.3,0-0.5,0-0.8s0-0.6,0-0.9c-1.3-1.8-1.4-3.9-0.9-6.1c1.8-8.3-2-30.2-2.5-31.6
		c-1.3-4.1-2.1-8.5-4.1-12.2c-3.1-5.6-3-11.3-2.4-17.3c0.7-6.9,1.5-13.8,1.8-20.7c0.3-9.8-0.6-47.5-1-55c0-0.5-0.2-1-0.2-1.5
		c-0.5-6.4-1-12.9-1.6-19.3c-0.5-1.9-1.2-3.8-1.2-5.9l0,0c-1.9-19.1-5-37.9-11.3-56.2c-0.2-0.5-0.3-0.9-0.4-1.4
		c0-0.1-0.1-0.1-0.1-0.2c-1-1.8-2-3.7-2.5-5.7c0-0.2,0-0.3,0-0.4c-0.2-0.2-0.4-0.4-0.6-0.6c-0.9-3.1-2.3-6.2-2.8-9.4
		c-0.7-4.8-0.8-9.7-1.1-14.6c0.4-0.8,0-4.4,0-5.4c0.1-4.8,0.4-9.6,0.6-14.4c0-0.5,0.2-1,0.2-1.5c0.3-7.2,0.7-14.5,1-21.7
		c0-0.3,0.5-5.3,1.3-6.3l0,0c2-10.9,6.4-20.9,12.3-31.2c0.5,6.6,1,12.5,1.5,18.4l0.1,0.1c0.2,0.5,0.4,1,0.5,1.5
		c0.4,1.6,0.2,3.3,0.3,4.9c0,1.2,0.1,2.3,0.1,3.5c0.7,3.2,1.2,6.4,1.8,9.6c1.1,6.2,2.1,12.3,3.1,18.5c-0.1,0.3-0.1,0.6-0.2,1
		c1.9,0.7,2.2,2.2,2.3,4c0.3,6.3,0.6,12.5,1,18.8c0.1,1.8,0.6,3.5,1,5.2c0.1,0.3,0.1,0.6,0.1,0.9c-0.4,7.6,0.4,15.1,1.9,22.6
		c1.8,8.7,3.9,17.2,5.9,25.9c0,0,0,0.1,0.1,0.1c0.1,0.1,0.1,0.2,0.1,0.4v0.1l0,0l0,0c0,0.1,0,0.1,0,0.2s0,0.3-0.1,0.4c0,0,0,0,0,0.1
		c0.3,1,0.6,2,0.7,3c0.1,0.1,0.2,0.2,0.3,0.3c0.2,2.5,0.2,5,0.7,7.4c0.6,3.1-0.1,5.7-2.3,7.7c-4.3,3.9-5.9,8.6-5.4,14.3
		c0.2,1.6,0.3,3.4-0.1,5c-0.2,0.8-0.7,1.6-1.2,2.4c-0.1,1.1,0,2.1-0.3,3.2c-0.1,0.3-0.2,0.7-0.4,1l0,0c-1.1,1.8-2.4,3.5-3.3,5.4
		c-0.4,0.7-0.3,2,0.1,2.8c1.6,2.9,3.7,5.4,7,6.7c4,1.5,8.2,1.2,12.3,1c-0.1-0.3-0.2-0.6-0.3-0.8c0.4,0,0.9-0.1,1.3-0.1
		c0.3,0,0.5,0,0.8,0.1c1.1-2.2,2-4.5,3.2-6.7c1.3-2.5,2.8-4.9,4.3-7.3c1.2-2,1.4-3.9,0.8-6.2c-1-3.8-1.7-7.8-2.1-11.7
		c-0.2-2.4-0.9-4.9,0.3-7.2c0-1.2,0.3-2.4,0.6-3.6c0-0.1-0.1-0.1-0.1-0.2c0.7-6.8,1.4-13.5,2.1-20.3c0.7-6.9,1.5-13.8,2.2-20.7
		c1-9.5,2.4-19.1,2.6-28.7C301.1,271.3,299.6,261.9,295.9,253z M114.5,371.9c1.2,3.4,2.1,6.1,3.1,8.7c-4.3,1.9-4.3,1.9-6.9-5.8
		C111.6,374.1,112.6,373.3,114.5,371.9z M280.9,378.9c-1,2.8-1.8,3.1-5.8,2.3l0,0c0.9-2.5,1.8-4.9,2.8-7.4c0.2-0.4,0.6-0.7,0.9-1.1
		C281.9,374.6,282.2,375.3,280.9,378.9z"/>
	<path class="st0" d="M606.2,253c-1.2-3-1.8-6.4-1.8-9.7c0-6,0.6-11.9,0.9-17.9c0.1-0.3,0.3-0.7,0.4-1c-0.4-2.3-1.1-4.7-1.3-7
		c-0.5-6.4-0.9-12.8-1.1-19.2c-0.2-4.3,0-8.6-0.1-12.8l-1.9-15.1c-0.2-4.3-1.9-8.1-4-11.8c-0.3-1-0.6-2-0.9-3
		c0.1-0.5-6.1-6.9-9.3-9.7c-4.2-3.9-9.5-5.1-14.9-6.2c-1.8-0.3-3.7-0.3-5.3-1c-6.2-2.7-12.4-5.5-18.5-8.5c-0.9-0.4-4-0.7-5.1-2.4
		c-2.5-1.6-5-3.3-7.5-4.8c-4.4-2.7-8.4-5.6-7.7-11.6c0.1-0.6-0.4-1.3-0.4-1.9c-0.4-4.1-1.5-8.2,1.8-11.8c0.8-0.8,0.5-2.5,0.8-3.8
		c0.7-2.9,0.9-5.8,3.4-8.1c4.8-4.4,4.5-10.6,2.9-15.8c-1.2-4-1.4-7.6-0.8-11.6c1-6.4,0.9-12.7-3.8-17.8c-2.5-2.7-3-6.4-5.3-9
		c-0.8-0.9-1.7-1.9-2.8-2.5c-1.3-0.7-2.9-0.8-4.3-1.3c-0.2-0.1-0.3-0.5-0.5-0.7c0.4-0.6,0.8-1.2,1.8-2.7c-4-0.2-7.3-0.3-10.5-0.5
		c-3.7-0.2-3.9-0.6-3.2-4.6c-7.1,1.2-12.4,6-18.6,9c-1.9,0.9-3.9,1.6-5.4,2.9c-4,3.3-6.1,8.2-6.6,13c-0.8,6.9,0,13.9,0,20.9
		c0,1.4-0.3,2.8-0.6,4.1c-1.4,5.9-0.5,11.7,3.1,16.5c1.5,2.1,2.7,4,3.3,6.4c0.5,2.1,1.2,4.2,2.2,6.1c2.8,5.7,2.1,11.6,0.7,17.5
		c0.7,0.7-7.4,6.5-10.9,8.3c-4.7,2.3-27.6,15-34.4,16.7c-0.6,0.2-1.3,0.1-2,0.1c-11.5,0-23.3,10-26.3,19.9
		c-1.4,4.7-1.8,9.8-2.3,14.7c-0.4,4.1-0.4,8.3-0.4,12.4c0,1.1,0.7,2.1,1,3.2c0.9,5.6,0.2,11.1-0.7,16.6c-0.2,0-0.3,0-0.5,0l0,0
		c0,0.4,0,0.9-0.1,1.3c0,0.4-0.1,0.8-0.2,1.2l0,0c0.1,0,0.3,0,0.4,0c0.1,1.5,0.3,2.5,0.1,3.4c-1.1,6.1-0.8,12.2-0.1,18.3
		c0.6,5.9,1.3,11.9-0.6,17.8c-0.2-0.2-2,6-2.5,8c-1.2,5.7-3.2,13.1-3.5,19.9c0.3,7.2,0.5,14.5,1.1,21.7c0.3,4.4,2.8,23.6,3.5,27.7
		c1.6,8.5,0.7,17.2,3.3,25.6c0.1,0.5,0.1,1,0,1.5c-0.5,4.9-0.6,10-1.7,14.8c-1.5,6.3-0.5,11.7,3.4,16.8c0.9,1.2,1.7,2.5,2.5,3.7
		c3.7,5.5,5.5,6.2,12,4.9c0.7-0.1,1.3-0.3,1.9-0.6c8.8-3.7,11.1-8.4,6.4-14.9c-0.3-0.4-0.6-0.8-0.9-1.2c-1.6-2.9-2.6-5.8-1.9-9.4
		c1.1-5.9-0.5-11.3-5.1-15.3c-2.4-2.1-3.1-4.6-2.3-7.6c0.2-1,0.6-1.9,0.6-2.9c0.6-11.9,3.7-23.2,6.9-34.6c2.6-9,3.8-18.2,4.1-27.5
		c0.2-5.3,0.2-10.7,0-16c-0.2-5.6,1-10.8,2.3-16.2c3-12.4,5.9-24.8,5.8-37.7c0-3.5,0.7-7,1.1-10.5c2.6,3.6,4.5,7.3,5.9,11.2
		c2.5,6.5,5,13,6.9,19.7c2.9,10.3,2.1,21.1,2.8,31.6c0.6,7.7-0.8,15.6-0.7,23.3c0.1,7.9-2.7,14.9-5.2,22.2c-2.2,6.6-4.2,13.3-6,20
		c-2.5,9.6-4.5,19.4-5.2,29.3c-0.7,9.4-1.9,18.8-2.8,28.2c-0.1,0.8-0.2,1.6-0.3,2.4c0.1,1.5,0.3,2.9,0.2,4.3
		c-0.6,9.2-1.4,18.4-1.7,27.6c-0.3,7.6,0.8,29.1,0.9,30.8c0.5,7.3,0.2,14.7,1.3,21.8c0.7,4.6,0,8.5-1.9,12.5c-1,2.3-1.7,4.7-2.5,7
		c-3.4,10.3-5.4,20.8-6.2,31.6c-0.6,7.7-0.2,15.2,1.1,22.6c2.8,15.2,6,30.2,9,45.4c1.2,6.2,2.4,12.6,0.2,18.7
		c-1.5,4.2-2.4,8.3-2,12.6c0.2,2.3-0.6,3.9-2.4,5.6c-3.4,3.1-6.8,6.4-9.6,10.1c-3.9,5.2-2.4,9.2,3.8,10.7c8.5,2.1,17,1.9,25.6,0.4
		c1.8-0.3,3.6-0.8,5.3-1.4c3.6-1.4,5.9-5.1,4.7-8.8c-3.3-10.7-2.1-21.6-2.2-32.5c0-6.6,0.7-13.3,1.9-19.7c1.7-9.1,3.5-18.3,6.4-27.1
		c2.1-6.4,3.3-12.9,3.4-19.5c0.1-7.6-0.5-15.2-1-22.9c-0.4-5.4-1.4-10.8-1.8-16.3c-0.5-9.1-0.6-18.1,4.5-26.5
		c4.9-8.3,8.1-17.5,10-27c1.9-9.2,3.5-18.6,5.5-27.8c3.3-15.2,6.9-30.4,10.4-45.6c0.8-3.3,1.7-6.6,2.6-9.8
		c1.9,5.8,2.9,11.5,4.2,17.1c3.5,16.2,7,32.4,10.5,48.6c0.8,3.7,1.8,7.5,2.1,11.2c0.6,7.2,2.6,14.1,5.5,20.6
		c3,6.6,6.5,13.1,9.8,19.6c0.7,1.5,1.7,3.1,1.7,4.6c0.2,5.5,0.2,11-0.1,16.5c-0.4,8.3-1.3,16.5-1.8,24.8c-0.2,3.3,0.1,6.7-0.1,10
		c-0.3,9.7-0.2,19.3,4.3,28.3c0.4,0.9,0.5,1.9,0.8,2.9c5.3,17.9,5,36.4,5.8,54.7c0.2,4.9-1.4,9.8-2.3,14.7
		c-1.1,5.7,0.8,9.4,6.1,10.6c9.7,2.1,19.5,2.4,29.2,0.4c6.6-1.3,8.1-5.1,4.1-10.4c-2.7-3.7-6.3-6.7-9.6-10c-1.5-1.5-3.9-2.8-3.1-5.2
		c1.9-5.6-0.5-10.4-2.2-15.4c-0.7-2.3-1.1-4.9-0.6-7.3c2.6-14.2,5.6-28.3,8.3-42.5c1.1-5.7,1.5-11.5,2.2-17.2
		c0.8-0.9,1.5-1.9,2.3-2.8c0-0.3,0-0.5,0-0.8s0-0.6,0-0.9c-1.3-1.8-1.4-3.9-0.9-6.1c1.8-8.3-2-30.2-2.5-31.6
		c-1.3-4.1-2.1-8.5-4.1-12.2c-3.1-5.6-3-11.3-2.4-17.3c0.7-6.9,1.5-13.8,1.8-20.7c0.3-9.8-0.6-47.5-1-55c0-0.5-0.2-1-0.2-1.5
		c-0.5-6.4-1-12.9-1.6-19.3c-0.5-1.9-1.2-3.8-1.2-5.9l0,0c-1.9-19.1-5-37.9-11.3-56.2c-0.2-0.5-0.3-0.9-0.4-1.4
		c0-0.1-0.1-0.1-0.1-0.2c-1-1.8-2-3.7-2.5-5.7c0-0.2,0-0.3,0-0.4c-0.2-0.2-0.4-0.4-0.6-0.6c-0.9-3.1-2.3-6.2-2.8-9.4
		c-0.7-4.8-0.8-9.7-1.1-14.6c0.4-0.8,0-4.4,0-5.4c0.1-4.8,0.4-9.6,0.6-14.4c0-0.5,0.2-1,0.2-1.5c0.3-7.2,0.7-14.5,1-21.7
		c0-0.3,0.5-5.3,1.3-6.3l0,0c2-10.9,6.4-20.9,12.3-31.2c0.5,6.6,1,12.5,1.5,18.4l0.1,0.1c0.2,0.5,0.4,1,0.5,1.5
		c0.4,1.6,0.2,3.3,0.3,4.9c0,1.2,0.1,2.3,0.1,3.5c0.7,3.2,1.2,6.4,1.8,9.6c1.1,6.2,2.1,12.3,3.1,18.5c-0.1,0.3-0.1,0.6-0.2,1
		c1.9,0.7,2.2,2.2,2.3,4c0.3,6.3,0.6,12.5,1,18.8c0.1,1.8,0.6,3.5,1,5.2c0.1,0.3,0.1,0.6,0.1,0.9c-0.4,7.6,0.4,15.1,1.9,22.6
		c1.8,8.7,3.9,17.2,5.9,25.9c0,0,0,0.1,0.1,0.1c0.1,0.1,0.1,0.2,0.1,0.4v0.1l0,0l0,0c0,0.1,0,0.1,0,0.2s0,0.3-0.1,0.4c0,0,0,0,0,0.1
		c0.3,1,0.6,2,0.7,3c0.1,0.1,0.2,0.2,0.3,0.3c0.2,2.5,0.2,5,0.7,7.4c0.6,3.1-0.1,5.7-2.3,7.7c-4.3,3.9-5.9,8.6-5.4,14.3
		c0.2,1.6,0.3,3.4-0.1,5c-0.2,0.8-0.7,1.6-1.2,2.4c-0.1,1.1,0,2.1-0.3,3.2c-0.1,0.3-0.2,0.7-0.4,1l0,0c-1.1,1.8-2.4,3.5-3.3,5.4
		c-0.4,0.7-0.3,2,0.1,2.8c1.6,2.9,3.7,5.4,7,6.7c4,1.5,8.2,1.2,12.3,1c-0.1-0.3-0.2-0.6-0.3-0.8c0.4,0,0.9-0.1,1.3-0.1
		c0.3,0,0.5,0,0.8,0.1c1.1-2.2,2-4.5,3.2-6.7c1.3-2.5,2.8-4.9,4.3-7.3c1.2-2,1.4-3.9,0.8-6.2c-1-3.8-1.7-7.8-2.1-11.7
		c-0.2-2.4-0.9-4.9,0.3-7.2c0-1.2,0.3-2.4,0.6-3.6c0-0.1-0.1-0.1-0.1-0.2c0.7-6.8,1.4-13.5,2.1-20.3c0.7-6.9,1.5-13.8,2.2-20.7
		c1-9.5,2.4-19.1,2.6-28.7C611.3,271.3,609.8,261.9,606.2,253z M424.7,371.9c1.2,3.4,2.1,6.1,3.1,8.7c-4.3,1.9-4.3,1.9-6.9-5.8
		C421.8,374.1,422.8,373.3,424.7,371.9z M591.1,378.9c-1,2.8-1.8,3.1-5.8,2.3l0,0c0.9-2.5,1.8-4.9,2.8-7.4c0.2-0.4,0.6-0.7,0.9-1.1
		C592.2,374.6,592.4,375.3,591.1,378.9z"/>
</g>
<g>
	<g id="calves">
		<path class="st1" d="M136.8,516.1c-1.6-8.3-3.1-16.7-4.7-25c-0.2-1.1-0.2-2.2-0.2-3.3c-0.2-0.1-0.4-0.1-0.5-0.2
			c-0.7,1.3-1.6,2.5-2,3.9c-1.4,5.1-3,10.2-3.9,15.4c-0.9,5.7-1.3,11.4-1.6,17.2c-0.2,4.1,0.1,8.3,0.2,12.5c0,0.7,0,1.4,0.1,2
			c0,0.1,0,0.1,0,0.2c0.2,1.7,1,6.6,1.3,8c0.8,3.6,1.8,7.2,2.6,10.8c1.1,4.8,2.1,9.6,3.2,14.4c1.2,5.6,2.6,11.1,3.7,16.7
			c1.1,5.7,2.1,11.5,3.2,17.3c0.1,0.4,1,0.9,1.5,0.9c0.4,0,1.1-0.5,1.2-0.9c0.4-1.8,0.6-3.6,0.8-5.5c0.5-5,1.1-10,1.4-15.1
			c1-16.8,0.1-33.5-2.6-50.1C139.3,529,138,522.6,136.8,516.1z"/>
		<path class="st1" d="M243.3,570.5L243.3,570.5c0-1.1,0-2.2,0-3.3c0.2-0.1,0.3-0.2,0.5-0.3c0-4.2,0-8.3,0-12.6
			c-0.2,0.1-0.3,0.2-0.5,0.3c0-0.3,0-0.6,0-0.9c0.2-2.4,0.2-5.1,0-5.8l0,0c0.2-0.9,0.1-1.8-0.3-3c-0.9-2.7-1.3-5.4-2-8.2
			c-0.1,0-0.1,0.1-0.2,0.1c-0.1-0.6-0.3-1.2-0.4-1.8c0.1-0.1,0.2-0.2,0.2-0.2c-0.7-3.7-1.2-7.5-2-11.2c-1.3-6.5-2.8-12.9-4.1-19.4
			c-0.1,0-0.2,0-0.3,0c0,0.1,0,0.1,0,0.2c0-0.1,0-0.3-0.1-0.4c-0.1,0-0.3,0-0.4,0c-0.2,1.6-0.4,3.1-0.6,4.7c-0.2,1-0.6,1.9-0.7,2.9
			c-0.2,2.1-0.3,4.3-0.5,6.4c-0.2,1.2-0.4,2.4-0.7,3.6c0,0.7-0.1,1.3-0.1,2c-0.1,0.9-0.1,1.7-0.2,2.6c0,0.6-0.1,1.2-0.1,1.7
			c-0.1,1.6-0.3,3.2-0.3,4.8c-0.1,4.8,0.1,9.6,1.4,14.3c0.2,0.7,0.3,1.3,0.5,2c0.1,0.8,0.3,1.5,0.4,2.3c0.3,2.1,0.5,4.1,0.9,6.2
			c0.3,1.6,3.3,19.9,3.8,21.6l0,0c0.3,2.5,0.8,5,1.3,7.5c1.1,4.9,2.4,9.7,3.6,14.6c0.1,0.5,0.4,1,0.8,1.3c0-0.2,0-0.3,0-0.5
			c0.1,0.3,0.2,0.6,0.3,0.9c0.2-1,0.4-1.7,0.4-2.3c0-10.7,0-21.3-0.1-32C243.7,569.3,243.5,569.9,243.3,570.5z"/>
		<path class="st1" d="M161.6,528c0-0.6-0.1-1.2-0.1-1.7c-0.1-0.9-0.1-1.7-0.2-2.6c0-0.7-0.1-1.3-0.1-2c-0.2-1.2-0.4-2.4-0.7-3.6
			c-0.2-2.1-0.3-4.3-0.5-6.4c-0.1-1-0.4-1.9-0.7-2.9c-0.2-1.6-0.4-3.1-0.6-4.7c-0.1,0-0.3,0-0.4,0c-0.1,0.6-0.2,1.3-0.3,1.9
			c-0.4,2.1-0.8,4.2-1.2,6.3c-0.7,3.3-1.3,6.5-2,9.8c-0.1,0.4-0.1,0.9-0.2,1.3c-1.7,7.8-3.6,16.9-5.3,24.7c-0.1,0.7-0.2,3.4,0,5.8
			c0,16.3,0,32.6,0,48.9c0.5-0.4,0.7-0.8,0.8-1.3c1.2-4.9,2.5-9.7,3.6-14.6c0.6-2.5,1-5,1.3-7.5l0,0c0.4-1.8,3.5-20,3.8-21.6
			c0.6-3.5,0.8-7.1,1.7-10.5c1.3-4.7,1.5-9.5,1.4-14.3C161.9,531.2,161.7,529.6,161.6,528z"/>
		<path class="st1" d="M268,514c-0.1-1.3-0.2-2.7-0.3-4l-0.1,0.1c-0.1-1-0.3-2.1-0.4-3.1c-0.1-0.6-0.2-1.1-0.3-1.7
			c-0.7-4.5-1.7-9.1-3.4-13.4c-0.1-0.1-0.1-0.3-0.2-0.4c-0.4-1.4-1.3-2.6-2-3.9c-0.2,0.1-0.4,0.1-0.5,0.2c-0.1,1.1,0,2.2-0.2,3.3
			c-1.5,8.3-3.1,16.7-4.7,25c-1.2,6.5-2.5,12.9-3.6,19.4c-2.8,16.6-3.6,33.3-2.6,50.1c0.3,5,0.9,10.1,1.4,15.1
			c0.2,1.8,0.4,3.7,0.8,5.5c0,0.2,0.2,0.4,0.5,0.6v0.1c0,0.7,0.1,1.3,1.1,1.3c0.9,0,1.3-0.2,1.5-1.3c1-6.5,2.1-12.9,3.2-19.4
			c0.1-0.8,0.3-1.5,0.4-2.3c0.9-4.4,2-8.7,2.9-13c1.1-4.8,2.1-9.6,3.2-14.4c0.8-3.6,1.8-7.2,2.6-10.8c0.3-1.3,1.1-6.3,1.3-8
			c0-0.1,0.1-0.2,0-0.2c0-0.7,0-1.4,0.1-2c0.1-4.2,0.4-8.3,0.2-12.5C268.5,520.8,268.3,517.4,268,514z"/>
		<path class="st1" d="M461.4,588.2c-1.2,2.2-1.8,2.6-2.8,1c-0.9-1.3-1.5-3-2.2-4.6c-0.5-1.1-0.9-2.3-1.3-3.5
			c-0.3-1-0.5-2.2-0.8-3.3c-0.3-1.4-0.6-2.7-0.9-4.1c-0.2-1.2-0.3-2.4-0.5-3.6c-0.1-0.7-0.5-1.3-0.7-1.9c-0.3,0.4-0.8,0.7-1,1.2
			c-0.3,1-0.5,2.2-0.8,3.3c-0.5,2.1-0.9,4.2-1.6,6.2c-1,3.2-2,6.4-4,8.5c-1,1.1-2.1,1.2-3,0.3s-1.9-2-2-4.2
			c-0.6-14.5-1.2-28.9-1.8-43.4c-0.3-6.8-0.6-13.5-0.6-20.3c0-2.7,0.5-5.4,0.7-8.1c0.2-2.3,0.3-4.7,0.4-7.1
			c0.2-4.5,0.6-8.9,2.5-12.5c1.4-2.6,3-3.7,5.2-3.4c2,0.3,3.8,1,5.2,3.3c0.7,1.2,1,2.8,1.5,4.1c0.4,1,1,1.8,1.5,2.7
			c0.5-0.9,1.2-1.6,1.4-2.7c0.6-2.5,1.7-3.9,3.2-4.4c1.9-0.6,3.6-0.6,5.6,0.8c2.2,1.5,3.3,4.7,5.2,6.2c0.2,0.1,0.4,0.6,0.4,0.9
			c0.2,2.6,0.3,5.2,0.4,7.9c0.1,3.3,0.1,6.6,0.1,9.8c0,0.3,0,0.5,0,0.8c0,0.5,0,1.1-0.1,1.6c0,1.3,0,2.5,0,3.8
			c-0.4,2.8-0.8,5.5-1.2,8.3c-0.2,1.2-0.4,2.3-0.6,3.5c-0.2,1.1-0.5,2.1-0.6,3.2c-0.2,1.2-0.3,2.4-0.5,3.6
			c-0.6,3.5-1.3,7.1-1.8,10.6c-0.3,2-0.3,4.2-0.5,6.3c-0.1,1.4-0.3,2.7-0.5,4c-0.1,1.4-0.1,2.7-0.2,4.1c-0.9,1.6-1.2,3.6-1.1,5.7
			c0,0.9-0.1,1.9-0.1,2.8c-0.2,1.3-0.5,2.5-0.7,3.8c0,0.3,0,0.5-0.1,0.8c-0.5,2.4-0.9,4.7-1.4,7.1
			C461.5,587.6,461.5,587.9,461.4,588.2z"/>
		<path class="st1" d="M550.9,588.2c1.2,2.2,1.8,2.6,2.8,1c0.9-1.3,1.5-3,2.2-4.6c0.5-1.1,0.9-2.3,1.3-3.5c0.3-1,0.5-2.2,0.8-3.3
			c0.3-1.4,0.6-2.7,0.9-4.1c0.2-1.2,0.3-2.4,0.5-3.6c0.1-0.7,0.5-1.3,0.7-1.9c0.3,0.4,0.8,0.7,1,1.2c0.3,1,0.5,2.2,0.8,3.3
			c0.5,2.1,0.9,4.2,1.6,6.2c1,3.2,2,6.4,4,8.5c1,1.1,2.1,1.2,3,0.3s1.9-2,2-4.2c0.6-14.5,1.2-28.9,1.8-43.4
			c0.3-6.8,0.6-13.5,0.6-20.3c0-2.7-0.5-5.4-0.7-8.1c-0.2-2.3-0.3-4.7-0.4-7.1c-0.2-4.5-0.6-8.9-2.5-12.5c-1.4-2.6-3-3.7-5.2-3.4
			c-2,0.3-3.8,1-5.2,3.3c-0.7,1.2-1,2.8-1.5,4.1c-0.4,1-1,1.8-1.5,2.7c-0.5-0.9-1.2-1.6-1.4-2.7c-0.6-2.5-1.7-3.9-3.2-4.4
			c-1.9-0.6-3.6-0.6-5.6,0.8c-2.2,1.5-3.3,4.7-5.2,6.2c-0.2,0.1-0.4,0.6-0.4,0.9c-0.2,2.6-0.3,5.2-0.4,7.9c-0.1,3.3-0.1,6.6-0.1,9.8
			c0,0.3,0,0.5,0,0.8c0,0.5,0,1.1,0.1,1.6c0,1.3,0,2.5,0,3.8c0.4,2.8,0.8,5.5,1.2,8.3c0.2,1.2,0.4,2.3,0.6,3.5
			c0.2,1.1,0.5,2.1,0.6,3.2c0.2,1.2,0.3,2.4,0.5,3.6c0.6,3.5,1.3,7.1,1.8,10.6c0.3,2,0.3,4.2,0.5,6.3c0.1,1.4,0.3,2.7,0.5,4
			c0.1,1.4,0.1,2.7,0.2,4.1c0.9,1.6,1.2,3.6,1.1,5.7c0,0.9,0.1,1.9,0.1,2.8c0.2,1.3,0.5,2.5,0.7,3.8c0,0.3,0,0.5,0.1,0.8
			c0.5,2.4,0.9,4.7,1.4,7.1C550.8,587.6,550.9,587.9,550.9,588.2z"/>
	</g>
	<g id="hamstings">
		<path class="st1" d="M470.1,498c-0.1-1.6,0-3.3-0.3-4.7c-0.9-3.8-1.8-7.5-3-11.1c-0.9-2.7-2.3-4.9-3.1-7.6
			c-0.7-2.4-1.1-5.1-1.3-7.7c-0.2-3.1,0.1-6.3,0.1-9.4c0-0.7-0.3-1.3-0.5-2c-0.4,0.4-1,0.7-1.2,1.3c-1.4,4.6-3.4,8.6-5.4,12.4
			c-1,1.9-2.6,3.1-3.9,4.5c-2,2.3-4.1,4.4-6,7c-1.2,1.6-2,3.8-3,5.7c-0.4,0.8-1,1.5-1.4,2.3c-0.1-0.1-0.3-0.2-0.4-0.3
			c0-1.6-0.1-3.3,0-4.8c0.4-4.2,1-8.4,1.5-12.6c0.5-3.9,0.8-7.8,1.4-11.7c0.3-2.5,0.9-4.9,1.4-7.4c0.2-1.2,0.4-2.4,0.6-3.7
			c0.4-2.4,0.8-4.9,1.2-7.3c0.2-1.1,0.6-2.1,0.8-3.2c0.7-3,1.4-6,2.1-8.9c0.3-1.2,0.7-2.4,1.1-3.6c0.8-2.7,1.5-5.4,2.3-8.1
			c0.1-0.3,0.1-0.7,0.2-0.9c1.5-3.1,2.1-6.9,3-10.5c0.8-3.2,1.6-6.4,2.5-9.4c1-3.2,2.1-6.3,3.4-9.3c0.6-1.5,1.7-2.5,2.7-3.5
			c0.3-0.4,1-0.1,1.5,0.1c2.7,1.1,5.3,2.5,8,3.4c1.7,0.5,3.6,0,5.3,0.2c1.6,0.2,3.6,0.4,4.1,3.2c0.8,4.3,2,8.5,1.5,13.3
			c-0.3,2.3,0,4.7-0.1,7.1c-0.2,2.6-0.6,5.2-0.9,7.7c-0.2,2.2-0.3,4.5-0.6,6.7c-0.6,4-1.2,8-1.9,12c-0.7,3.8-1.5,7.5-2.3,11.1
			c-0.9,3.7-2,7.3-2.8,11.1c-1.3,5.6-2.4,11.3-3.5,17c-0.7,3.4-1.4,6.9-2,10.4c-0.3,1.7-0.1,3.6-0.1,5.4c0,1.3,0.2,2.6,0.1,3.9
			c0,0.8-0.4,1.6-0.5,2.5C470.5,498.1,470.3,498.1,470.1,498z"/>
		<path class="st1" d="M542.2,498c0.1-1.6,0-3.3,0.3-4.7c0.9-3.8,1.8-7.5,3-11.1c0.9-2.7,2.3-4.9,3.1-7.6c0.7-2.4,1.1-5.1,1.3-7.7
			c0.2-3.1-0.1-6.3-0.1-9.4c0-0.7,0.3-1.3,0.5-2c0.4,0.4,1,0.7,1.2,1.3c1.4,4.6,3.4,8.6,5.4,12.4c1,1.9,2.6,3.1,3.9,4.5
			c2,2.3,4.1,4.4,6,7c1.2,1.6,2,3.8,3,5.7c0.4,0.8,1,1.5,1.4,2.3c0.1-0.1,0.3-0.2,0.4-0.3c0-1.6,0.1-3.3,0-4.8
			c-0.4-4.2-1-8.4-1.5-12.6c-0.5-3.9-0.8-7.8-1.4-11.7c-0.3-2.5-0.9-4.9-1.4-7.4c-0.2-1.2-0.4-2.4-0.6-3.7c-0.4-2.4-0.8-4.9-1.2-7.3
			c-0.2-1.1-0.6-2.1-0.8-3.2c-0.7-3-1.4-6-2.1-8.9c-0.3-1.2-0.7-2.4-1.1-3.6c-0.8-2.7-1.5-5.4-2.3-8.1c-0.1-0.3-0.1-0.7-0.2-0.9
			c-1.5-3.1-2.1-6.9-3-10.5c-0.8-3.2-1.6-6.4-2.5-9.4c-1-3.2-2.1-6.3-3.4-9.3c-0.6-1.5-1.7-2.5-2.7-3.5c-0.3-0.4-1-0.1-1.5,0.1
			c-2.7,1.1-5.3,2.5-8,3.4c-1.7,0.5-3.6,0-5.3,0.2c-1.6,0.2-3.6,0.4-4.1,3.2c-0.8,4.3-2,8.5-1.5,13.3c0.3,2.3,0,4.7,0.1,7.1
			c0.2,2.6,0.6,5.2,0.9,7.7c0.2,2.2,0.3,4.5,0.6,6.7c0.6,4,1.2,8,1.9,12c0.7,3.8,1.5,7.5,2.3,11.1c0.9,3.7,2,7.3,2.8,11.1
			c1.3,5.6,2.4,11.3,3.5,17c0.7,3.4,1.4,6.9,2,10.4c0.3,1.7,0.1,3.6,0.1,5.4c0,1.3-0.2,2.6-0.1,3.9c0,0.8,0.4,1.6,0.5,2.5
			C541.8,498.1,542,498.1,542.2,498z"/>
	</g>
	<g id="quads">
		<path class="st1" d="M231.2,452.5c0.1,0,0.1,0,0.2,0c0.1,0,0.1,0,0.2,0c0.9,0.1,1.7-0.1,2.6-0.5c2.7-1.2,4.3-3.3,5.3-5.9
			c2.2-5.4,3.3-11.1,2.9-17.3c0.9-5.4-1.3-10.6-2.4-15.9c-1.4-6.8-3.2-13.5-4.9-20.2c-1.3-5.4-2.5-10.8-3.9-16.1
			c-0.2-0.7-0.9-1.2-1.4-1.8c-0.1,0.1-0.1,0.2-0.2,0.3c-0.1-0.1-0.2-0.2-0.2-0.3c-0.1,0.1-0.1,0.1-0.2,0.2c-0.1-0.1-0.2-0.2-0.3-0.3
			c-0.4,0.5-1,0.9-1.1,1.5c-1,5.1-1.8,10.2-2.8,15.3c-0.7,3.5-1.7,7-2.4,10.5c-1.4,6.6-2.8,13.1-4,19.7c-0.7,3.7-0.7,7.5,0.6,11.2
			c0.4,1.3,0.9,2.5,1.3,3.8c0.6,1.9,1.2,3.8,2,5.7c0.5,1.4,1,2.8,1.5,4.1c0.5,1.3,1.4,2.4,2.3,3.4
			C227.8,451.7,229.4,452.5,231.2,452.5C231.1,452.5,231.2,452.5,231.2,452.5z"/>
		<path class="st1" d="M169.9,402c-0.7-3.5-1.7-7-2.4-10.5c-1-5.1-1.8-10.2-2.8-15.3c-0.1-0.5-0.7-1-1.1-1.5
			c-0.2,0.2-0.4,0.3-0.6,0.5c-0.1-0.1-0.3-0.3-0.4-0.4c-0.5,0.6-1.2,1.1-1.4,1.8c-1.4,5.4-2.6,10.8-3.9,16.1
			c-1.6,6.7-3.5,13.4-4.9,20.2c-1.1,5.3-3.3,10.5-2.4,15.9c-0.4,6.2,0.7,11.9,2.9,17.3c1,2.5,2.7,4.7,5.3,5.9
			c0.9,0.4,1.8,0.6,2.7,0.5c1.8,0.1,3.6-0.7,5.3-2.6c0.9-1,1.8-2.2,2.3-3.4c1.7-4.5,3.2-9.1,4.8-13.6c1.3-3.7,1.3-7.4,0.6-11.2
			C172.7,415.1,171.3,408.6,169.9,402z"/>
		<path class="st1" d="M154.5,390.3c1.2-5.5,2.2-11,3.6-16.4c1.5-6,1.5-12,0.8-18c-1.2-10.1-3.1-20-5.5-29.9
			c-1.1-4.5-2.1-9-3.1-13.4c-0.1-0.5-0.5-1.1-0.8-1.2c-0.4-0.1-0.9,0.4-1.3,0.7c-0.3,0.3-0.6,0.7-0.8,1.1c-1.3,3.4-3,6.7-3.8,10.3
			c-1.8,7.4-3.3,14.8-4.6,22.3c-1.8,10.1-1.6,20.2,0.5,30.2c0.1,0.3,0.2,0.6,0.3,1c0.2,1.8,0.6,4.9,0.8,5.6c1.3,7.2,2.7,14.5,4,21.7
			c0.7,3.8,1.3,7.6,2,11.4c0.2,1.3,0.7,2.7,1.1,4.3c1.1-4.7,2.1-9,3.1-13.3C151.9,401.2,153.3,395.8,154.5,390.3z"/>
		<path class="st1" d="M253.1,377.6c0.5-3.1,1-6.3,1.5-9.4c0-0.4-0.1-0.9-0.1-1.3c0.1-1.5,0.2-3,0.3-4.4l0.1,0.1
			c0.1-0.6,0.4-1.3,0.3-1.9c-0.4-5.7-0.5-11.6-1.5-17.2c-1.4-8-3.5-15.9-5.5-23.8c-0.6-2.5-1.9-4.8-3.2-7.1
			c-0.7-1.2-1.3-1.6-1.8-1.1c-0.1,0-0.1,0-0.2,0c-0.4,0.1-0.7,0.7-0.8,1.2c-1.1,4.5-2.1,9-3.1,13.4c-2.4,9.9-4.3,19.8-5.5,29.9
			c-0.7,6-0.7,12,0.8,18c1.4,5.4,2.3,10.9,3.6,16.4c1.2,5.4,2.6,10.9,3.9,16.3c1,4.3,2,8.6,3.1,13.3c0.1-0.3,0.1-0.6,0.2-0.8
			c0,0.2,0.1,0.4,0.1,0.6c0.1,0,0.3,0,0.4,0c0.2-1.2,0.4-2.4,0.6-3.7c1.7-9.1,3.3-18.1,5-27.2C252,385.2,252.5,381.4,253.1,377.6z"
			/>
		<path class="st1" d="M143.4,416.1c-1.4-7-2.7-14.1-4.1-21.1c-0.3-1.5-0.6-3-0.9-4.5c0.1,0.9,0.2,1.7,0.2,2.6s0.1,1.7,0.2,2.6
			c-0.1-0.9-0.1-1.7-0.2-2.6s-0.1-1.7-0.2-2.6c-0.2-1.7-0.4-3.3-0.7-5c-0.2-1-0.4-2-0.7-3c0,0,0,0.1-0.1,0.1
			c-0.4-1.9-0.9-5.4-1.3-7.1c-0.1,0-0.2,0-0.3,0c-0.4,2.7-1.6,8.2-2,10.8c0.1-0.1,0.2-0.2,0.3-0.2c-0.2,2.4-0.4,4.8-0.7,7.2
			c-0.3,2.7-0.6,5.5-0.9,8.2c0.1,0.4,0.4,0.7,0.4,1.1c-0.1,3-0.1,6-0.2,9c0,0.1-0.2,0.3-0.4,0.4c-0.3,9-0.6,17.9,0.9,26.8l0,0
			c0.3,1.5,0.9,6.2,1.3,7.6c0.3,0.8,0.9,1.8,1.5,1.9s1.4-0.9,2-1.4c0.1-0.1,0.1-0.2,0.2-0.3c1.8-4,5.2-13.1,5.8-17.5
			c0.1-0.9,0.1-1.8,0.3-2.6c0.6-1.9,0.9-3.7,0.3-5.6C143.9,419.2,143.7,417.6,143.4,416.1z M138.9,412.1L138.9,412.1L138.9,412.1
			L138.9,412.1z"/>
		<path class="st1" d="M224.7,380.5c0.7-3,1.3-6.1,2-9.1c1.9-8.1,3.8-16.2,5.7-24.2c0.1-0.4,0.2-0.7,0.3-1.1
			c0.2-1.1,0.5-2.2,0.7-3.2c-0.1-0.1-0.3-0.1-0.4-0.2c0.2-0.9,0.4-1.9,0.6-2.8c0.1,0.1,0.1,0.2,0.2,0.3c0.5-2.1,1-4.3,1.6-6.4
			c0.2-0.6,0.4-1.2,0.6-1.9c1.2-5.2,2.4-10.4,3.6-15.6c0.3-1.5,0.7-3,1-4.5c0.3-1.7,0.1-2.6-0.9-3.1c-0.4-0.3-0.9-0.4-1.5-0.5
			c-0.5,0-1,0-1.5,0.2c-0.1,0-0.3,0-0.4,0c0,0.1,0,0.2-0.1,0.2c-0.4,0.3-0.7,0.7-0.9,1.3c-1,4.2-2,8.4-3,12.6
			c-0.7,2.8-1.3,5.6-2,8.4c-0.8,3.4-1.5,6.9-2.4,10.3c-1,4.3-2.2,8.6-3.2,13c-0.7,3-1.4,6-2.1,9c-2.4,9.8-4.7,19.7-7.1,29.5
			c-1.2,4.9-2.5,9.7-3.7,14.6c-0.5,2.1-1,4.2-1.1,6.4c-0.1,1.2,0.4,2.6,1.1,3.6c0.2,0.3,0.5,0.5,0.9,0.6c0.5,0.3,1.1,0.4,1.8,0.4
			c1.6-0.1,2-1.3,2.3-2.6c0.9-4.2,1.9-8.4,2.8-12.6C221.2,395.4,223,387.9,224.7,380.5z"/>
		<path class="st1" d="M177.4,390.2c-2.2-9.2-4.4-18.4-6.7-27.6c-0.6-2.8-1.3-5.6-1.9-8.4c-1-4-2-8.1-3-12.1
			c-0.8-3.2-1.5-6.4-2.2-9.6c-0.6-2.6-1.2-5.2-1.9-7.8c-0.9-3.9-1.8-7.8-2.8-11.7c-0.3-1.3-1.4-1.7-2.7-1.6
			c-0.9,0.1-1.9,0.3-1.7,1.7c-0.2,0.5-0.5,1-0.4,1.4c0.2,1.2,0.6,2.4,1,3.6c0.2,0.5,0.5,1,0.7,1.4c0.2,1.1,0.3,2.1,0.5,3.2
			c0.4,2,0.8,3.9,1.3,5.9c2.7,11.7,5.3,23.5,8,35.2c1.1,4.8,2.4,9.6,3.4,14.4c2.5,11,4.9,22.1,7.3,33.2c0.3,1.1,0.6,2.5,2.1,2.6
			c0.8,0,2-0.2,2.4-0.8c0.6-0.9,1.1-2.2,1-3.3c-0.1-2-0.5-4-1-5.9C179.8,399.2,178.6,394.7,177.4,390.2z"/>
		<path class="st1" d="M150.8,307.4c-0.1,0.1-0.2,0.3-0.2,0.4c-0.2,0.6-0.5,1.3-0.8,2.1c2.4,0.1,4.5-0.3,6.4-1.2
			c1.6-0.8,2.1-1.6,1.7-3.3c-0.5-2.6-2.2-4.6-3.7-6.8c-0.2,0.6-0.3,0.8-0.4,1.1c-0.4,0.7-0.8,1.5-1.1,2.2c-0.6,1.5-1.1,3-1.6,4.6
			l0,0c-0.1,0.1-0.1,0.2-0.2,0.4C150.9,307.1,150.8,307.3,150.8,307.4z"/>
		<path class="st1" d="M245,304.8c-0.4-0.4-0.8-0.8-1.2-1.2c0-0.1,0-0.1,0-0.2c-0.1-0.1-0.2-0.3-0.2-0.4l0,0
			c-0.6-1.6-1.1-3.1-1.7-4.7c0.1-0.1,0.2-0.2,0.4-0.3c-0.2-0.6-0.3-1.2-0.6-1.7s-0.7-0.9-1-1.3c0,0.1-0.1,0.1-0.1,0.2
			c-0.1-0.2-0.1-0.4-0.2-0.8c-1.7,2.4-3.4,4.5-4,7.3c-0.3,1.5-0.1,2.3,0.9,3c0.2,0.3,0.5,0.6,0.7,0.8c2.1,1.6,4.5,1.3,7.1,1.1l0,0
			l0,0c0.2,0,0.3,0,0.5,0C245.2,305.9,245.1,305.3,245,304.8z"/>
		<path class="st1" d="M254.8,446.8c0.7,0.5,1.4,1.5,2,1.4h0.1c0.1,0,0.1,0.1,0.2,0.1c0.3,0.1,1.2-0.8,1.3-1.4
			c0.6-2.3,1.3-4.6,1.6-6.9c0.5-5.7,0.9-11.4,1.2-17.1c0.1-2.2-0.1-4.5-0.1-6.8c-0.1-0.1-0.2-0.3-0.4-0.4c0-0.8,0-1.6-0.1-2.4
			c0.1,0.1,0.2,0.1,0.3,0.2c0.1-0.2,0.3-0.4,0.3-0.6c-0.2-4.4-0.4-8.8-0.6-13.2c-0.6-8.2-1.8-16.3-3.1-24.5
			c-0.1,0.2-0.2,0.5-0.2,0.7c0-0.2-0.1-0.4-0.1-0.6c-0.1,0-0.2,0-0.3,0c-0.4,1.7-0.9,5.2-1.3,7.1c0,0,0-0.1-0.1-0.1
			c-0.2,1-0.5,2-0.7,3c-0.3,1.7-0.4,3.3-0.7,5c-0.3,1.5-0.6,3-0.9,4.5c-1.4,7-2.7,14.1-4.1,21.1c-0.3,1.6-0.5,3.2-1,4.7
			c-0.5,1.9-0.2,3.8,0.3,5.6c0.2,0.8,0.2,1.7,0.3,2.6c0.6,4.4,4,13.5,5.8,17.5C254.7,446.6,254.7,446.7,254.8,446.8z"/>
	</g>
	<g id="glutes">
		<path class="st1" d="M501.6,362.4c0.3-3.6,0.5-7.3,0.5-10.9c0-7.5-0.5-15-0.5-22.5c0-0.1,0-0.1,0-0.2c-0.2-0.8-0.4-1.5-0.7-2.1
			c-3.8-8.1-9.9-12.7-17.6-14.7c-1.2-0.3-2.4-0.3-3.5-0.6c-4.4-1.1-8.5,0-12.6,1.7c-3.3,1.4-6,3.6-8.8,6.1c-2,1.8-3.2,3.9-4,6.4
			c-0.9,2.7-1.1,5.5-1.8,8.3c-1,4.1-1,8.7-0.8,13.1c0.3,5.7,0.1,11.4,2,17c1.4,4.3,2.7,8.5,6.2,11.2c3,2.4,6.2,4.6,9.9,5.4
			c0.4,0.1,0.8,0.5,1.2,0.6c1.2,0.4,2.4,1.1,3.6,1.1c3.2,0.2,6.5,0,9.7,0.1c3.3,0.1,6.3-0.5,9.2-2.6c4.1-3.1,7.1-6.8,7.9-12.3
			C501.4,365.8,501.5,364.1,501.6,362.4z"/>
		<path class="st1" d="M479.6,305.6c-0.5,0.2-1,0.4-1.6,0.5c-7,0.5-12.8,3.8-17.4,9.8c-0.3,0.4-1.2,0.7-1.6,0.5
			c-0.4-0.3-0.6-1.2-0.6-1.8c-0.3-4.4,2.3-6.4,5.3-8.1c3.8-2.2,7.9-2.4,12-2.1c1.2,0.1,2.5,0.3,3.7,0.5
			C479.6,305.1,479.6,305.4,479.6,305.6z"/>
		<path class="st1" d="M510.7,362.4c-0.3-3.6-0.5-7.3-0.5-10.9c0-7.5,0.5-15,0.5-22.5c0-0.1,0-0.1,0-0.2c0.2-0.8,0.4-1.5,0.7-2.1
			c3.8-8.1,9.9-12.7,17.6-14.7c1.2-0.3,2.4-0.3,3.5-0.6c4.4-1.1,8.5,0,12.6,1.7c3.3,1.4,6,3.6,8.8,6.1c2,1.8,3.2,3.9,4,6.4
			c0.9,2.7,1.1,5.5,1.8,8.3c1,4.1,1,8.7,0.8,13.1c-0.3,5.7-0.1,11.4-2,17c-1.4,4.3-2.7,8.5-6.2,11.2c-3,2.4-6.2,4.6-9.9,5.4
			c-0.4,0.1-0.8,0.5-1.2,0.6c-1.2,0.4-2.4,1.1-3.6,1.1c-3.2,0.2-6.5,0-9.7,0.1c-3.3,0.1-6.3-0.5-9.2-2.6c-4.1-3.1-7.1-6.8-7.9-12.3
			C511,365.8,510.9,364.1,510.7,362.4z"/>
		<path class="st1" d="M532.7,305.6c0.5,0.2,1,0.4,1.6,0.5c7,0.5,12.8,3.8,17.4,9.8c0.3,0.4,1.2,0.7,1.6,0.5
			c0.4-0.3,0.6-1.2,0.6-1.8c0.3-4.4-2.3-6.4-5.3-8.1c-3.8-2.2-7.9-2.4-12-2.1c-1.2,0.1-2.5,0.3-3.7,0.5
			C532.8,305.1,532.8,305.4,532.7,305.6z"/>
	</g>
	<g id="lats">
		<path class="st1" d="M453.8,208.8c1,0.7,1.8,1.3,2.6,1.9c0.2,0.2,0.4,0.5,0.7,0.5c4.1,1.6,8.2,3.5,12.6,2.8
			c2.3-0.3,4.6-0.9,6.8-1.8c2.8-1,3.6-0.8,5.4,2.6c1.9,3.4,3.7,6.9,5.7,10.2c2.7,4.5,5.3,9.3,8.5,13.1c2.6,3.1,2.4,6.7,1.8,10.2
			c-0.9,5-1.5,10.3-3.1,15.1c-3.2,9.7-6,19.7-10.2,28.6c-0.7,1.6-1.6,3-2.5,4.4s-2,1.4-2.7-0.3c-2-4.5-3.8-9.2-5.9-13.8
			c-1.4-3.2-3-6.1-4.5-9.2c-1-1.9-2.4-3.4-3-5.5c-0.9-3.3-1.3-6.9-1.9-10.3c-0.4-2.1-0.7-4.2-1-6.3c-0.1-0.6-0.2-1.2-0.3-1.8
			c-0.7-3.9-1.4-7.8-2.2-11.6c-0.4-1.6-1.2-3-1.6-4.6c-1.1-4.5-2.1-9-3.1-13.5c-0.7-3-1.4-6-2.1-9.1
			C453.7,210,453.8,209.7,453.8,208.8z"/>
		<path class="st1" d="M558.5,208.8c-1,0.7-1.8,1.3-2.6,1.9c-0.2,0.2-0.4,0.5-0.7,0.5c-4.1,1.6-8.2,3.5-12.6,2.8
			c-2.3-0.3-4.6-0.9-6.8-1.8c-2.8-1-3.6-0.8-5.4,2.6c-1.9,3.4-3.7,6.9-5.7,10.2c-2.7,4.5-5.3,9.3-8.5,13.1
			c-2.6,3.1-2.4,6.7-1.8,10.2c0.9,5,1.5,10.3,3.1,15.1c3.2,9.7,6,19.7,10.2,28.6c0.7,1.6,1.6,3,2.5,4.4s2,1.4,2.7-0.3
			c2-4.5,3.8-9.2,5.9-13.8c1.4-3.2,3-6.1,4.5-9.2c1-1.9,2.4-3.4,3-5.5c0.9-3.3,1.3-6.9,1.9-10.3c0.4-2.1,0.7-4.2,1-6.3
			c0.1-0.6,0.2-1.2,0.3-1.8c0.7-3.9,1.4-7.8,2.2-11.6c0.4-1.6,1.2-3,1.6-4.6c1.1-4.5,2.1-9,3.1-13.5c0.7-3,1.4-6,2.1-9.1
			C558.6,210,558.5,209.7,558.5,208.8z"/>
	</g>
	<g id="traps">
		<path class="st1" d="M504,186.7c0,5.8,0,11.6,0,17.4c0,4,0.1,8-0.1,12c-0.2,4.4-0.7,8.7-1,13.1c-0.2,2.2-0.1,4.5-0.4,6.7
			c-0.2,1.8-0.8,2.1-1.7,0.7c-3.8-5.6-7.7-11-11.3-16.9c-2.6-4.2-4.9-8.8-6.9-13.5c-1.7-4.1-3-8.5-4.3-13
			c-1.8-6.5-1.1-13.3-2.1-19.8c-0.4-2.8-0.4-6-1.3-8.5c-1.4-4-3.3-7.7-5.3-11.2c-1.3-2.3-3-4.3-4.7-5.9c-1.8-1.6-3.8-2.7-5.8-3.9
			c-0.9-0.5-1.3-1.8-0.6-2.9c0.2-0.3,0.5-0.7,0.8-0.8c2.1-1.1,4.1-2.3,6.2-3.2c2.4-1.1,4.9-1.8,7.4-2.7c3.2-1.3,6.3-2.7,9.5-4.1
			c5-2.2,8-7.2,9.8-13.8c1.1-4.1,2.1-8.2,3.4-12.3c0.3-1,1.3-1.9,2.1-2.1c1-0.3,2,0.1,3,0.4c1.1,0.3,1.6,1.6,1.6,3
			c0,2.4-0.1,4.9-0.5,7.2c-0.9,4.5-1.9,8.9-3.1,13.2c-0.6,2.3-1.7,4.4-2.3,6.7c-1,4-1.8,8.2-0.7,12.3c0.6,2,1.9,3.6,2.9,5.4
			c0.9,1.7,1.7,3.5,2.5,5.4c1.1,2.4,1.6,5.1,1.6,7.9c0,0.3,0,0.6,0.1,0.7c1.7,2.7,1.1,6,1.2,9c0.2,4.4,0.1,8.9,0.1,13.4
			C504.2,186.7,504.1,186.7,504,186.7z"/>
		<path class="st1" d="M508.3,186.7c0,5.8,0,11.6,0,17.4c0,4-0.1,8,0.1,12c0.2,4.4,0.7,8.7,1,13.1c0.2,2.2,0.1,4.5,0.4,6.7
			c0.2,1.8,0.8,2.1,1.7,0.7c3.8-5.6,7.7-11,11.3-16.9c2.6-4.2,4.9-8.8,6.9-13.5c1.7-4.1,3-8.5,4.3-13c1.8-6.5,1.1-13.3,2.1-19.8
			c0.4-2.8,0.4-6,1.3-8.5c1.4-4,3.3-7.7,5.3-11.2c1.3-2.3,3-4.3,4.7-5.9c1.8-1.6,3.8-2.7,5.8-3.9c0.9-0.5,1.3-1.8,0.6-2.9
			c-0.2-0.3-0.5-0.7-0.8-0.8c-2.1-1.1-4.1-2.3-6.2-3.2c-2.4-1.1-4.9-1.8-7.4-2.7c-3.2-1.3-6.3-2.7-9.5-4.1c-5-2.2-8-7.2-9.8-13.8
			c-1.1-4.1-2.1-8.2-3.4-12.3c-0.3-1-1.3-1.9-2.1-2.1c-1-0.3-2,0.1-3,0.4c-1.1,0.3-1.6,1.6-1.6,3c0,2.4,0.1,4.9,0.5,7.2
			c0.9,4.5,1.9,8.9,3.1,13.2c0.6,2.3,1.7,4.4,2.3,6.7c1,4,1.8,8.2,0.7,12.3c-0.6,2-1.9,3.6-2.9,5.4c-0.9,1.7-1.7,3.5-2.5,5.4
			c-1.1,2.4-1.6,5.1-1.6,7.9c0,0.3,0,0.6-0.1,0.7c-1.7,2.7-1.1,6-1.2,9c-0.2,4.4-0.1,8.9-0.1,13.4
			C508.1,186.7,508.2,186.7,508.3,186.7z"/>
		<path class="st1" d="M216.8,135.2c2.5,2.8,5.2,5.4,7.6,8.3c0.9,1.1,1.8,1.7,2.8,2c0.4,0.1,0.8,0.3,1.2,0.4
			c4.7-0.7,11.9-1.9,16.6-2.6c0.9-0.1,1.9-0.1,2.6-0.5c0.7-0.4,1.3-1.2,1.4-2c0.1-0.6-0.5-1.6-1-1.9c-2.1-1.2-6.4-3.2-8.6-4.3l0,0
			c-0.5-0.3-1.1-0.6-1.6-0.9c-0.9-0.5-1.8-1-2.7-1.4l0,0c-0.7-0.4-1.4-0.7-2.1-1.1c-0.1-0.1-0.1-0.1-0.2-0.2l0,0
			c-0.1-0.1-0.2-0.2-0.3-0.2c-2.3-1.3-4.7-2.6-7-3.9c-0.5-0.3-0.9-0.5-1.4-0.8c-0.1-0.1-0.2-0.1-0.3,0c-0.9-0.6-1.6-0.8-2.3-0.8
			c-1-0.2-1.8,0.2-2.6,1.4c-0.9,1.5-1.7,3.1-2.6,4.6C215.6,132.8,215.8,134,216.8,135.2z"/>
		<path class="st1" d="M144.8,142.8c0.7,0.4,1.7,0.4,2.6,0.5c4.7,0.7,11.9,1.9,16.6,2.6c0.7-0.3,1.7-0.4,2.2-0.9
			c3-3.2,5.9-6.5,8.9-9.7c1.2-1.3,1.1-2.6,0.4-4c-0.7-1.4-1.6-2.8-2.4-4.2c-1.1-2-2.5-2.3-4.5-1c-0.1,0-0.2,0-0.3,0
			c-0.5,0.3-0.9,0.5-1.4,0.8c-2.3,1.3-4.7,2.6-7,3.9c-0.1,0.1-0.2,0.2-0.3,0.2l0,0c-0.1,0.1-0.2,0.2-0.4,0.4l0,0
			c-0.7,0.3-1.3,0.7-2,1l0,0c-1.4,0.8-2.8,1.5-4.3,2.3c0,0,0,0-0.1,0c-2.2,1.1-6.5,3.1-8.6,4.3c-0.5,0.3-1.1,1.3-1,1.9
			C143.5,141.6,144.2,142.5,144.8,142.8z"/>
		<path class="st1" d="M176.3,124.9c0.2,0.5,0.5,1,0.8,1.4c1.5,2.9,3.1,5.8,4.6,8.7c1.6,2.9,3.2,5.7,4.8,8.6
			c0.2,0.3,0.4,0.5,0.6,0.7c0.8,1.3,2.2,1.7,3.5,1.2c1.5-0.6,2.3-1.8,1.8-3.3c-0.5-1.8-1.3-3.4-2-5.1c-0.1-0.5-0.2-1.1-0.4-1.6
			c-2-5.2-4-10.5-6.2-15.6c-0.2-0.6-0.9-1.2-1.6-1.6c-1.4-1.4-3.5-1.5-5.6-0.2l-0.1,0.1c-0.1,0-0.2,0-0.3,0c0.1,0.1,0.1,0.1,0.2,0.2
			c0,0.1,0,0.2-0.1,0.3c0.1,0,0.1,0.1,0.2,0.1c-0.1,0.1-0.2,0.2-0.3,0.3l-0.1-0.1c-1.6,1.7-1.7,2.5-0.6,4.4
			C175.8,124,176,124.5,176.3,124.9z"/>
		<path class="st1" d="M201.9,145.5c0.6,0.2,1.2,0.3,1.8,0.1c1-0.1,2-0.6,2.5-1.5c1.6-2.9,3.2-5.7,4.8-8.6c2-3.8,4-7.6,6.1-11.4
			c0.6-1.2,0.9-1.9,0.5-2.8c-0.1-0.7-0.5-1.3-1.3-2.2l-0.1,0.1l-0.1-0.1c0-0.1-0.1-0.3-0.1-0.4l0,0c0-0.1,0-0.2-0.1-0.3
			c0.1-0.1,0.1-0.1,0.2-0.2c-0.1,0-0.2,0-0.3,0c0,0,0-0.1-0.1-0.1c-2-1.3-4.2-1.3-5.6,0.2c-0.7,0.4-1.3,1-1.6,1.6
			c-2.2,5.2-4.2,10.4-6.2,15.6c-0.2,0.5-0.2,1.1-0.4,1.6c-0.7,1.7-1.5,3.4-2,5.1C199.7,143.8,200.4,145,201.9,145.5z"/>
	</g>
	<g id="abs">
		<path class="st1" d="M212.4,348.8c1-2.9,1.6-6,2.2-9c0.8-4.1,1.5-8.3,2.3-12.4c1.1-5.9,2.3-11.8,3.5-17.7
			c0.7-3.7,1.2-7.4,2.1-11.1c1-3.8,0.8-7.3-0.8-10.9c-0.9-1.9-1.7-3.9-2.5-5.8c-0.8-1.7-2-2.7-3.7-2.9c-0.3-0.1-0.7-0.1-1.1-0.1
			c-0.2,0-0.4,0-0.6,0c-3.4,0-6.7-0.2-10.1-0.2c-0.4,0-0.9,0.1-1.4,0.2c-2.4,0.5-3.3,2.5-3.9,5.3c-1.9,8.4-0.3,16.9-1.3,27
			c0,10.2,0,22,0,33.9c0,2.3,0.5,4.3,2.2,6.1c1.4,1.5,3.1,2.2,4.9,2.3C207.6,354,211.3,352,212.4,348.8z"/>
		<path class="st1" d="M195.4,311.3c-1-10.1,0.6-18.6-1.3-27c-0.8-3.5-1.9-5.7-5.9-5.4c-3.4,0.2-6.8,0.2-10.2,0.1
			c-1.7,0-3.1,0.6-3.8,2c-1.6,3.6-3.4,7.3-4.3,11.1c-0.6,2.3,0.2,5,0.6,7.5c1.6,8.7,3.3,17.4,5,26.1c1,5.1,1.9,10.2,2.9,15.3
			c0.5,2.4,1,4.9,1.7,7.3c1.4,4.8,8.7,7.6,13,3c1.7-1.8,2.2-3.8,2.2-6.1C195.4,333.4,195.4,321.5,195.4,311.3z"/>
		<path class="st1" d="M167.9,256.1c-0.6-2.8-1.8-5.5-2.1-8.3c-0.5-4.6-1.6-9.3-0.8-14c0.1-0.8-0.2-1.6-0.4-2.4
			c-0.6-3-1.5-6.1-1.9-9.1c-0.2-2.4,0.2-5,0.4-7.5c0.1-1.5,0-3-1.8-3.6c-3.7-1.3-7.4-2.7-11.1-3.9c-0.6-0.2-1.3-0.3-1.9-0.1
			c-2.3,0.5-2.9,2.5-2,5.5c1.9,6.4,4,12.8,5.4,19.3c2,9.5,3,19.2,2.8,28.9c-0.2,9.1-0.6,18.3-0.9,27.4c-0.8,1.5,0,2.4,1.1,3.2
			c2.3,1.7,4.6,3.3,6.8,5c1.1,0.8,2.1,0.9,3.2,0.4c1.1-0.5,1.4-1.5,1.5-2.7c0.2-4,0.5-8.1,0.9-12.1c0.2-2.1,1.1-4.2,0.8-6.2
			c-0.8-4.9,0-9.7,0.1-14.6C168.2,259.5,168.3,257.7,167.9,256.1z"/>
		<path class="st1" d="M179.9,230.6L179.9,230.6c2.8,0,5.6,0,8.3,0c2.4,0,4.2-0.9,5.2-3.2c2-4.3,1.9-8.8,0.4-13.1
			c-1.4-3.8-4.6-4.8-7.7-3.2c-1.6,0.9-3.5,1.8-5.3,1.9c-3.7,0.2-7.5,0-11.3-0.2c-1.8-0.1-2.9,0.7-3.3,2.1c-1,3.9-1.6,8,0.1,11.9
			c1,2.4,2.8,3.6,5.4,3.6C174.5,230.6,177.2,230.6,179.9,230.6z"/>
		<path class="st1" d="M246.1,207.7c-0.8-0.8-1.8-0.9-2.8-0.7c-0.4,0-0.7,0.1-1.1,0.2c-3.7,1.3-7.4,2.6-11.1,3.9
			c-1.8,0.6-1.9,2.1-1.8,3.6c0.1,2.5,0.6,5,0.4,7.5c-0.3,3.1-1.2,6.1-1.9,9.1c-0.2,0.8-0.5,1.7-0.4,2.4c0.2,1,0.2,2,0.3,3.1
			c0,0.8-0.1,1.6,0,2.5c-0.2,2.9-0.7,5.7-1,8.5s-1.5,5.5-2.1,8.3c-0.3,1.6-0.3,3.4-0.3,5.1c0.1,4.9,0.9,9.7,0.1,14.6
			c-0.3,2,0.6,4.1,0.8,6.2c0.4,4,0.7,8.1,0.9,12.1c0.1,1.2,0.4,2.2,1.5,2.7c0.9,0.5,1.8,0.4,2.7,0c0.4-0.1,0.7-0.3,1-0.5
			c2.3-1.4,4.5-3.1,6.5-4.8c0.7-0.6,1.4-1.7,1.5-2.7c0.1-1.7-0.2-3.5-0.4-5.3c-0.2-0.1-0.3-0.1-0.4-0.2c0-0.8-0.1-1.5-0.1-2.3
			c0.2-0.2,0.3-0.4,0.5-0.5c-0.2-7.6-0.7-15.3-0.6-22.9c0.1-5.9,1-11.8,1.5-17.7c0-0.3,0-0.7,0-1c-0.2,0.2-0.4,0.4-0.6,0.6
			c0.1-0.8,0.3-1.6,0.4-2.5c0.1-0.1,0.3-0.3,0.4-0.4c0-0.1,0.1-0.1,0.1-0.2c0.1,0,0.1-0.1,0.1-0.1c0.9-4.4,1.7-8.8,2.8-13.1
			c1-3.8,2.3-7.5,3.5-11.2C247.2,210.5,247.3,208.9,246.1,207.7z"/>
		<path class="st1" d="M194.5,238.9c-0.3-3.5-2.4-5.5-5.7-5.1c-4.8,0.5-9.6,0.9-14.4,1.4c-1.1,0.1-2.2,0.4-3.1,1.1
			c-2.6,1.9-3.3,4.8-2.9,7.8c0.3,2.2,0.8,4.4,1.1,6.5c0.6,4,2.1,6.6,6.6,6c4.6-0.3,8.7-0.5,12.9-0.8c3-0.2,4.5-1.6,5.3-4.5
			C195.5,247.1,194.9,243,194.5,238.9z"/>
		<path class="st1" d="M226.2,214.3c-0.5-0.7-1.6-1.4-2.4-1.4c-0.1,0-0.1,0-0.2,0c-0.2,0-0.4,0-0.6,0c-0.1,0-0.1,0-0.2,0
			c-1.3,0-2.5,0.1-3.8,0.2c-2.4,0.1-4.9,0.1-7.3,0h-0.1c-1.2-0.3-2.4-0.7-3.5-1.4c-0.5-0.3-1.1-0.5-1.7-0.7
			c-0.9-0.4-1.7-0.6-2.5-0.6c-2.2-0.1-4.2,1.2-5.2,3.9c-1.5,4.3-1.6,8.8,0.4,13.1c1,2.1,2.7,3,4.8,3.1c0.6,0.1,1.3,0.2,2,0.2
			c2.3,0,4.7,0,7,0l0,0c2.6,0,5.2,0,7.8,0c2,0,3.9-0.5,5.1-2.3C228.1,225.2,228.5,217.7,226.2,214.3z"/>
		<path class="st1" d="M189.2,257.4c-3.6,0.1-7.2,0.3-10.8,0.4c-2.9,0.1-4.6,1.6-5.6,4.3c-1.7,4.4-0.5,8.6,1,12.7
			c0.6,1.6,2.1,2.4,3.9,2.4c1.3,0,2.6,0,4.3,0c2.1-0.1,4.6-0.2,7.2-0.4c1.5-0.1,3-0.4,3.8-1.9c2.5-4.6,2.3-9.4,0.8-14.1
			C193.2,258.6,191.6,257.3,189.2,257.4z"/>
		<path class="st1" d="M216.4,258.1c-0.2,0-0.3,0-0.5,0c-0.6-0.2-1.2-0.3-1.9-0.3c-3.6-0.1-7.2-0.2-10.8-0.4
			c-2.4-0.1-3.9,1.2-4.6,3.3c-1.5,4.8-1.7,9.6,0.8,14.1c0.8,1.4,2.1,1.8,3.6,1.9c0,0,0,0,0.1,0l0,0h0.1c2.5,0.2,5.1,0.3,7.2,0.4
			c1.8,0,3,0,4.3,0c0.1,0,0.3,0,0.4,0c0.1,0,0.2,0,0.3,0c1.5,0,2.6-0.7,3.4-2c1.2-1.8,1.7-3.7,1.7-5.8c0.4-3.3,0.9-6.7-1.6-9.5
			c-0.1,0.1-0.2,0.1-0.2,0.2c-0.3-0.4-0.6-0.7-0.9-1c0.1-0.1,0.2-0.2,0.4-0.3C217.5,258.6,217,258.2,216.4,258.1z"/>
		<path class="st1" d="M203.5,255.8c4.1,0.3,8.3,0.5,12.9,0.8c1.4,0.2,2.5,0.1,3.4-0.3c0.3,0,0.6-0.1,0.9-0.1
			c0.4-0.4,0.8-0.7,1.3-1.1c0.1-0.1,0.1-0.2,0.2-0.3l0,0c0.4-0.9,0.9-1.7,1-2.6c0.5-2.4,0.9-4.8,1.2-7.2c0.2-1.3,0.3-2.7,0.1-4
			c-0.6-3.7-2.6-5.6-6.3-6c-3.2-0.4-6.4-0.6-9.6-0.9c-1.6-0.2-3.3-0.3-4.9-0.5c-3.3-0.3-5.3,1.6-5.7,5.1c-0.4,4.1-1,8.3,0.2,12.4
			C199,254.2,200.5,255.6,203.5,255.8z"/>
		<path class="st1" d="M465.3,303.4c-1.6,0-2-0.8-2-2.6c-0.2-5-0.6-9.9-0.9-14.9c-0.2-2.8-0.4-5.5-0.5-8.3c0-0.4,0.2-1,0.5-1.1
			s0.9,0.1,1.2,0.4c1.4,1.6,2.9,3.2,4.1,5c2.8,4.2,5.5,8.5,8,12.9c2,3.6,2.1,2.8-1.4,4.5c-2.6,1.2-5.1,2.4-7.7,3.6
			C466,303.2,465.5,303.3,465.3,303.4z"/>
		<path class="st1" d="M547,303.4c1.6,0,2-0.8,2-2.6c0.2-5,0.6-9.9,0.9-14.9c0.2-2.8,0.4-5.5,0.5-8.3c0-0.4-0.2-1-0.5-1.1
			s-0.9,0.1-1.2,0.4c-1.4,1.6-2.9,3.2-4.1,5c-2.8,4.2-5.5,8.5-8,12.9c-2,3.6-2.1,2.8,1.4,4.5c2.6,1.2,5.1,2.4,7.7,3.6
			C546.3,303.2,546.8,303.3,547,303.4z"/>
	</g>
	<g id="pecs">
		<path class="st1" d="M190,154c-1.8-1.3-4-2.1-6.3-2.1c-8.2-0.1-16.4-0.6-24.6-1.4c-5-0.5-9.9-0.3-14.6,1.3
			c-7.1,2.4-11.9,7.3-14.9,14c-2.6,5.7-5.1,11.4-7.7,17.1c-0.6,1.4-1.5,2.7-2,4.2c-0.2,0.5,0.1,1.4,0.5,1.8c0.2,0.3,0.6,0.6,1.1,0.9
			c3.6,1.9,7.1,4.1,10.9,5.7c0.8,0.3,1.5,0.7,2.3,1c3.8,1.8,7.6,3.4,11.5,4.8c1.7,0.7,3.5,1.3,5.2,1.9c8.4,2.8,17.2,3.9,25.9,5
			c1.4,0.2,2.9,0.4,4.3,0.1c4.9-1.2,8.4-4.5,10.8-8.7c1.2-2.1,2.3-4.5,2.4-6.8c0.2-10,0.1-20,0-30C194.8,159,193.1,155.6,190,154z"
			/>
		<path class="st1" d="M200,199.4c2.1,3.7,5,6.6,8.9,8.1c1.2,0.7,2.6,1.1,4,0.9c0.4-0.1,0.8-0.1,1.2-0.2c0.3,0,0.6-0.1,0.9-0.1
			c6.9-0.9,13.8-1.7,20.6-3.4c7.9-1.6,15.3-4.6,22.6-8c4.7-2.2,9.1-4.8,13.6-7.3c0.3-0.2,0.5-0.6,0.6-1.1c0.2-0.4,0.3-0.9,0.2-1.2
			c-0.5-1.4-1.3-2.8-2-4.2c-2.6-5.7-5.1-11.4-7.7-17.1c-3-6.7-7.9-11.6-14.9-14c-4.7-1.6-9.6-1.8-14.6-1.3
			c-8.2,0.8-16.4,1.3-24.6,1.4c-2.3,0-4.5,0.8-6.3,2.1c-3.2,1.7-4.9,5-4.9,8.7c-0.1,10-0.2,20,0,30
			C197.7,194.9,198.8,197.4,200,199.4z"/>
	</g>
	<g id="forearms">
		<path class="st1" d="M114.8,273.2c-1.4-2.6-2.7-5.2-4-7.8h-0.1c0-0.1-0.1-0.2-0.2-0.2c-0.7-0.8-1.4-1.5-2.1-2.3
			c-0.1-0.1-0.1-0.2-0.2-0.4c-0.8-1.4-1.6-2.8-2.4-4.1c0.4,0.4,0.8,0.7,1.1,1.1c0-0.3,0.1-0.6,0-0.8c-1.2-2-2.3-3.9-3.5-5.9
			c-0.6-1-1.2-1.9-2.1-3.2c-0.1,0.2-0.1,0.4-0.2,0.6c0,0,0-0.1-0.1-0.1c-0.1,0.5-0.2,1-0.4,1.5c-0.2,0.5-0.3,1-0.4,1.4
			c0,0,0,0,0.1,0.1c-0.3,1.1-0.5,2.1-0.7,3.1c-1.1,6.7-1.6,13.5-1.3,20.3c0.1,1.4,0.2,2.8,0.3,4.2c0,0.4,0,0.7,0,1.1
			c0,0,0,0.2,0,0.4c0,0.1,0,0.3,0,0.4l0.1,0.1c0.5,5.1,1.2,10.2,2.5,15.3c1.3,5.1,3.2,10,4.6,15c0.9,3.6,1.3,7.3,1.8,10.9
			c0.5,3.5,0.7,6.9,1.2,10.4c0.2,1.7,0.6,3.4,0.9,5.1c0.1,0,0.1,0,0.2,0c0.2,1.2,0.3,2.4,0.5,3.6c0.1,1.1,0.6,2.2,0.9,3.3
			c0.5-0.5,0.7-1,0.7-1.4c0.6-7.3,1.2-14.6,1.8-21.9c0.2-2.8,0.2-5.5,0.7-8.3c0.1-0.2,0.1-0.5,0.2-0.7c0.1-0.4,0.2-0.7,0.3-1.1
			c0.1-0.3,0.2-0.7,0.3-1c1.2-3.2,2-6.6,2.6-9.9c1-5.7,2.1-11.4,1-17.3C118.1,280.7,116.8,276.9,114.8,273.2z"/>
		<path class="st1" d="M106.2,332.1c-0.7-4.6-1.5-9.3-2.2-13.9c-0.2-1.1-0.6-2.1-0.9-3.1c-0.1,0-0.1,0-0.2,0
			c-0.1,0.1-0.2,0.2-0.3,0.3c-0.2-0.8-0.3-1.7-0.5-2.5c0-0.1,0-0.2-0.1-0.3c0.2,0.1,0.4,0.1,0.6,0.2c-0.6-2.9-1.2-5.8-1.9-8.7
			c-1.3-5.6-2.7-11.1-4.1-16.7c-0.1-0.6-0.1-1.1-0.2-1.7c-0.2-1.2-0.4-2.4-0.6-3.5c-0.8-0.5-0.9,0-0.9,0.6c0,0.8,0.1,1.7,0.1,2.5
			c-0.2,0.2-0.4,0.5-0.7,0.7c0.1,1.8,0.1,3.6,0.3,5.3c0.4,6.3,0.9,12.5,1.4,18.8c0.1,1.1,0.3,2.1,0.5,3.2c0.6,4.9,1.3,9.9,1.9,14.8
			c0.4,3.4,0.6,6.7,0.9,10.1c0.2,2.3,0.5,4.6,0.7,6.9c0.2,2.6,0.1,2.6,2.8,2.6c0.1-0.1,0.2-0.2,0.3-0.3c1.1,0,2.2,0,3.2,0
			c1.3,0.1,1.8-0.5,1.7-1.7C107.5,341.2,106.9,336.6,106.2,332.1z"/>
		<path class="st1" d="M123.8,277c-0.1,0-0.3,0-0.4,0c0-1.2,0-2.4,0-3.6h0.1h0.2c0-1.5-0.1-3.1-0.1-4.6c0-0.1,0-0.3,0-0.4
			c0-1.5-0.1-2.9-0.7-4.5c-0.1-0.8-0.2-1.6-0.3-2.4c-2.4,2.6-4.1,5.4-4.7,8.8c0,0.1,0,0.2,0,0.3l-0.1,0.1c0,0.1,0.1,0.2,0.2,0.2l0,0
			c0.2,1.5,0.3,3,0.7,4.4c0.3,1.4,0.7,2.8,1.1,4.1c0.3,1.8,0.9,3.5,1.6,5.2c0.1,0.4,0.3,0.9,0.4,1.3c0.1,0,0.1,0,0.2,0
			c0.1,0.3,0.3,0.6,0.4,0.8C123.9,283.7,123.8,280.3,123.8,277z"/>
		<path class="st1" d="M274.8,271.4c0-0.2-0.1-0.3-0.1-0.5l0.1-0.1l-0.1-0.1l0,0c0-0.1,0-0.2,0-0.3c-0.6-3.4-2.3-6.2-4.7-8.8
			c-0.1,0.8-0.2,1.6-0.3,2.4c-0.6,1.6-0.7,3-0.7,4.5c0,0.1,0,0.3,0,0.4c0,1.5-0.1,3.1-0.1,4.6h0.2h0.1c0,1.2,0,2.4,0,3.6
			c-0.1,0-0.3,0-0.4,0c0,3.3-0.1,6.7,1.3,9.9l0,0c0,0.1,0,0.2,0.1,0.3c0.2,0,0.5,0,0.7,0c0.5-1.6,1-3.2,1.6-4.8
			c0.6-2,1.2-3.9,1.6-5.9C274.4,274.9,274.5,273.1,274.8,271.4z"/>
		<path class="st1" d="M298,285.9c0-0.1,0-0.1,0-0.2c0-1.2,0-2.3,0-3.5c-0.2,0-0.4,0-0.6-0.1c-0.1-0.3-0.3-0.4-0.8-0.1
			c-0.2,1.2-0.4,2.4-0.6,3.5c-0.1,0.6-0.1,1.1-0.2,1.7c-1.4,5.6-2.7,11.1-4.1,16.7c-0.7,2.9-1.3,5.8-1.9,8.7
			c0.2-0.1,0.4-0.1,0.5-0.2c-0.2,0.9-0.4,1.8-0.6,2.7c-0.1-0.1-0.2-0.1-0.2-0.2c0,0-0.1,0-0.2,0c-0.3,1-0.7,2.1-0.9,3.1
			c-0.8,4.6-1.6,9.2-2.2,13.9c-0.7,4.5-1.3,9.1-1.9,13.6c-0.2,1.3,0.3,1.8,1.7,1.7c1.1-0.1,2.2-0.1,3.2,0c0.1,0.1,0.2,0.2,0.3,0.3
			c2.7,0,2.6,0,2.8-2.6c0.2-2.3,0.5-4.6,0.7-6.9c0.3-3.4,0.5-6.7,0.9-10.1c0.6-4.9,1.3-9.9,1.9-14.8c0.2-1.1,0.4-2.1,0.5-3.2
			c0.5-6.3,0.9-12.5,1.4-18.8C297.9,289.6,297.9,287.8,298,285.9C298,286,298,286,298,285.9z"/>
		<path class="st1" d="M282.8,339.6c0-0.2,0.1-0.5,0.1-0.7l0,0c0.3-1.7,0.7-3.4,0.9-5.1c0.4-3.5,0.7-6.9,1.2-10.4s0.9-7,1.7-10.3
			c1.3-5,3.3-9.9,4.5-14.9c0.1-0.2,0.1-0.5,0.2-0.7l0,0c1.8-7,2.6-14.3,2.9-21.5c0.3-6.8-0.2-13.6-1.3-20.3
			c-0.3-1.9-0.9-3.9-1.4-6.2c-0.1,0.2-0.2,0.4-0.3,0.6c0-0.1-0.1-0.2-0.1-0.3c-0.9,1.3-1.5,2.2-2.1,3.2c-1.2,2-2.4,3.9-3.5,5.9
			c-0.1,0.2,0,0.5,0,0.8c0.2-0.2,0.4-0.4,0.6-0.6c-0.6,1-1.1,1.9-1.6,2.9c-0.3,0.6-0.6,1.1-0.9,1.7c-0.5,0.6-1,1.1-1.6,1.7
			c-0.1,0-0.2,0.1-0.2,0.2h-0.1c-1.3,2.6-2.6,5.2-4,7.8c-2,3.7-3.4,7.5-4.1,11.7c-1,5.9,0,11.6,1,17.3c0.6,3.4,1.4,6.8,2.6,9.9
			c0.1,0.3,0.2,0.7,0.3,1c0.1,0.4,0.2,0.7,0.3,1.1c0.1,0.2,0.1,0.5,0.2,0.7c0.5,2.7,0.5,5.5,0.7,8.3c0.6,7.3,1.2,14.6,1.8,21.9
			c0,0.4,0.2,0.8,0.5,1.2c0,0.1,0,0.2,0,0.3c0.2,0,0.4,0,0.6,0.1c0.3-0.6,0.5-1.2,0.8-1.7s0.8-1,1.2-1.5c-0.4-0.4-0.9-0.7-1.3-1.1
			c0.1-0.8,0.2-1.7,0.3-2.5C282.7,339.7,282.8,339.6,282.8,339.6z"/>
		<path class="st1" d="M423.6,355.8c-0.5-1.6-0.9-3.3-1.4-4.9c-0.2-0.7-0.7-1.2-1-1.8c-0.2,0.7-0.7,1.3-0.7,2c0,2,0.2,4,0.3,5.9
			c0,0.4,0,0.8-0.4,1.3c-0.5-1.7-1-3.5-1.5-5.2c-0.8-2.9-1-2.9-3.1-2c-0.8,0.3-1.8,0.2-2.7-0.2c-1.4-0.7-1.6,0.3-1.8,1.4
			c-0.1,0.7-0.3,1.4-0.6,2c-1-4.7-1-9.2-0.1-13.6c0.1-0.7,0.1-1.5,0.2-2.2c0.2-1.2,0.4-2.4,0.6-3.6c0.1-0.5,0.2-1,0.3-1.5
			c0.3-4.6,0.7-9.3,1-13.9c0.2-2.8,0.2-5.6,0.4-8.3c0.6-7,1.1-14.1,1.9-21c0.3-2.4,1.3-4.6,2.1-6.9c0.4-1.2,1.2-1.4,2.4-0.6
			c3.9,2.7,6.2,6.8,7.3,12.1c1.1,5.3,0.5,10.3-0.2,15.2c-0.5,3.4-1.1,6.7-1.6,10.1c-0.7,4.4-1.6,8.8-2.1,13.2
			c-0.4,4.2-0.4,8.5,0.5,12.9c0.6,3.1,0.7,6.3,1,9.5C424.1,355.7,423.8,355.7,423.6,355.8z"/>
		<path class="st1" d="M408.2,276.1c3.7,4,5.4,8.4,4.3,13.9c-0.2,0.8,0,1.8-0.1,2.6c-0.5,4.2-1,8.3-1.5,12.5
			c-0.3,2.9-0.4,5.9-0.5,8.9c-0.1,3.6-0.1,7.3-0.3,11c0,0.4-0.5,0.7-0.7,1.1c-0.2-0.5-0.6-0.9-0.7-1.4c-1.5-6.3-1.8-12.6-1.7-18.9
			c0-1.6-0.6-3.2-0.5-4.8c0.3-5.4-0.4-11,0.5-16.3c0.3-2,0.3-4.1,0.5-6.1C407.6,277.8,407.9,277.1,408.2,276.1z"/>
		<path class="st1" d="M604.1,276.1c-3.7,4-5.4,8.4-4.3,13.9c0.2,0.8,0,1.8,0.1,2.6c0.5,4.2,1,8.3,1.5,12.5c0.3,2.9,0.4,5.9,0.5,8.9
			c0.1,3.6,0.1,7.3,0.3,11c0,0.4,0.5,0.7,0.7,1.1c0.2-0.5,0.6-0.9,0.7-1.4c1.5-6.3,1.8-12.6,1.7-18.9c0-1.6,0.6-3.2,0.5-4.8
			c-0.3-5.4,0.4-11-0.5-16.3c-0.3-2-0.3-4.1-0.5-6.1C604.7,277.8,604.4,277.1,604.1,276.1z"/>
		<path id="_x3C_Path_x3E_" class="st1" d="M588.7,355.8c0.5-1.6,0.9-3.3,1.4-4.9c0.2-0.7,0.7-1.2,1-1.8c0.2,0.7,0.7,1.3,0.7,2
			c0,2-0.2,4-0.3,5.9c0,0.4,0,0.8,0.4,1.3c0.5-1.7,1-3.5,1.5-5.2c0.8-2.9,1-2.9,3.1-2c0.8,0.3,1.8,0.2,2.7-0.2
			c1.4-0.7,1.6,0.3,1.8,1.4c0.1,0.7,0.3,1.4,0.6,2c1-4.7,1-9.2,0.1-13.6c-0.1-0.7-0.1-1.5-0.2-2.2c-0.2-1.2-0.4-2.4-0.6-3.6
			c-0.1-0.5-0.2-1-0.3-1.5c-0.3-4.6-0.7-9.3-1-13.9c-0.2-2.8-0.2-5.6-0.4-8.3c-0.6-7-1.1-14.1-1.9-21c-0.3-2.4-1.3-4.6-2.1-6.9
			c-0.4-1.2-1.2-1.4-2.4-0.6c-3.9,2.7-6.2,6.8-7.3,12.1c-1.1,5.3-0.5,10.3,0.2,15.2c0.5,3.4,1.1,6.7,1.6,10.1
			c0.7,4.4,1.6,8.8,2.1,13.2c0.4,4.2,0.4,8.5-0.5,12.9c-0.6,3.1-0.7,6.3-1,9.5C588.2,355.7,588.5,355.7,588.7,355.8z"/>
	</g>
	<g id="triceps">
		<path class="st1" d="M430.7,190.7c-0.9,4.1,0,8.3,0.4,12.4c0.2,2.5,0.7,5,1.2,7.4c0.8,4,1.7,7.9,2.6,11.8c0.9,3.8,2,7.5,3,11.3
			c0.8,3.2,0.7,6.4-0.4,9.6c-1.6,4.5-2.9,9.2-4.5,13.8c-0.9,2.6-1.9,5.2-2.9,7.7c-0.2,0.6-0.7,0.9-1.1,1.3c-3.1,3.2-6,6.7-9.5,8.9
			c-0.6,0.4-1.3,0.7-1.9,1.1c-1.5,0.9-1.7,0.5-1.9-2c-0.1-1.8,0.2-3.7,0.6-5.5c0.6-2.9,1.4-5.7,2-8.5c0.7-2.9,0.8-5.7,0.1-8.6
			c-0.4-1.5-1.2-1.9-2.2-1.7c-1.9,0.3-3.1,2.6-3.4,5.4c-0.2,2.3-0.6,4.5-1.1,6.7c-0.5,2.3-1.3,4.5-1.9,6.8c-0.1,0.2-0.1,0.5-0.3,0.6
			c-0.6,0.5-1.1,0.9-1.7,1.3c-0.1-0.9-0.4-2-0.2-2.8c1-5.1,2.1-10.2,3-15.3c0.9-4.8,0.9-9.6,0.6-14.6c-0.2-2.7,0.1-5.5,0.2-8.3
			c0.3-4.5,0.5-9.1,1-13.6c0.5-4.6,1.2-9.1,1.8-13.6c0-0.3,0.2-0.7,0.4-0.7c2.1-0.3,3-3.2,4.5-4.7c3.3-3.1,6.5-6.4,9.8-9.6
			c0.9-0.9,1.5-0.3,1.6,1.2C430.7,189.2,430.7,189.9,430.7,190.7z"/>
		<path class="st1" d="M581.6,190.7c0.9,4.1,0,8.3-0.4,12.4c-0.2,2.5-0.7,5-1.2,7.4c-0.8,4-1.7,7.9-2.6,11.8c-0.9,3.8-2,7.5-3,11.3
			c-0.8,3.2-0.7,6.4,0.4,9.6c1.6,4.5,2.9,9.2,4.5,13.8c0.9,2.6,1.9,5.2,2.9,7.7c0.2,0.6,0.7,0.9,1.1,1.3c3.1,3.2,6,6.7,9.5,8.9
			c0.6,0.4,1.3,0.7,1.9,1.1c1.5,0.9,1.7,0.5,1.9-2c0.1-1.8-0.2-3.7-0.6-5.5c-0.6-2.9-1.4-5.7-2-8.5c-0.7-2.9-0.8-5.7-0.1-8.6
			c0.4-1.5,1.2-1.9,2.2-1.7c1.9,0.3,3.1,2.6,3.4,5.4c0.2,2.3,0.6,4.5,1.1,6.7c0.5,2.3,1.3,4.5,1.9,6.8c0.1,0.2,0.1,0.5,0.3,0.6
			c0.6,0.5,1.1,0.9,1.7,1.3c0.1-0.9,0.4-2,0.2-2.8c-1-5.1-2.1-10.2-3-15.3c-0.9-4.8-0.9-9.6-0.6-14.6c0.2-2.7-0.1-5.5-0.2-8.3
			c-0.3-4.5-0.5-9.1-1-13.6c-0.5-4.6-1.2-9.1-1.8-13.6c0-0.3-0.2-0.7-0.4-0.7c-2.1-0.3-3-3.2-4.5-4.7c-3.3-3.1-6.5-6.4-9.8-9.6
			c-0.9-0.9-1.5-0.3-1.6,1.2C581.7,189.2,581.7,189.9,581.6,190.7z"/>
	</g>
	<g id="biceps">
		<path class="st1" d="M131.1,211.3c-0.1-3.6-0.8-7.1-2.1-10.3c-1.9-4.6-5.1-5.9-8.8-3.7c-3.7,2.3-5.7,6-7.3,10l0,0
			c-0.3,0.7-1.9,4.3-2.1,5c-0.6,1.9-1.1,3.8-1.6,5.8c-2.3,8.7-3.1,17.5-1.1,26.3c0.4,1.9,1.2,3.9,2.2,5.5c2.2,3.3,6.1,3.6,9.2,0.6
			c3.4-3.2,5.4-7.3,7.1-11.5C129.9,230,131.4,220.8,131.1,211.3z"/>
		<path class="st1" d="M101,237.1c0.6,3.3,1.7,6.4,4.1,8.8c0-6.9,0-13.8,0-20.7c0.1-0.9,0.1-1.8,0.2-2.8c0-0.3,0-0.6,0.1-1
			c0.1-0.7,0.2-1.4,0.3-2.1c0.2-1.3,0.4-2.6,0.7-3.9c0.2-1.1,0.4-2.1,0.6-3.2c0.3-1,0.6-2,0.9-2.9c0.8-2.5,1.9-4.9,3-7.2
			c0.4-0.8,0.8-1.5,1.3-2.3c1.1-1.9,2.2-3.8,3.3-5.7l0,0c-1.3,0.6-3.2,1.5-5.2,2.4c0,0,0-0.1-0.1-0.1c-1.7,0.8-3.4,1.6-5,2.5
			l-0.1,0.1c-0.4,0.2-0.8,0.4-0.9,0.7c-0.2,0.2-0.4,0.5-0.4,0.7c-0.9,4.5-1.7,9-2.5,13.5c-0.1,0.4,0,0.8-0.1,1.2
			c-0.1,1-0.2,2.1-0.3,3.1c-0.3,3-0.7,5.9-1,8.9c0.1,0.1,0.2,0.2,0.3,0.3C99.9,230.7,99.8,233.9,101,237.1z M112,198.8
			C112,198.7,111.9,198.7,112,198.8c0.3-0.8,0.5-1.4,0.7-1.8C112.4,197.6,112.3,198.2,112,198.8z"/>
		<path class="st1" d="M284.7,221.7c-1.2-6.8-3.5-13.2-6.9-19.2c-0.2-0.3-0.5-0.4-0.7-0.7l0,0c-0.4-0.7-0.9-1.3-1.4-1.9
			c-0.8-1.8-3-3.3-5.2-3.6c-2.8-0.8-5.3,0.8-6.8,4.6c-1.3,3.3-2,6.8-2.1,10.3c-0.3,9.5,1.1,18.7,4.6,27.6c1.7,4.3,3.7,8.3,7.1,11.5
			c1.6,1.5,3.3,2.2,4.9,2c1.4,0.1,2.6-0.4,3.5-1.5c1.2-1.5,2.3-3.2,2.8-5c0.8-3.2,1.1-6.5,1.7-9.8c-0.2,0.1-0.3,0.1-0.5,0.1
			c0-0.8,0.1-1.5,0.1-2.3c0.2-0.2,0.5-0.5,0.7-0.7C285.8,229.5,285.3,225.6,284.7,221.7z"/>
		<path class="st1" d="M291.6,213.6c-0.8-4.5-1.6-9-2.5-13.5c-0.1-0.6-0.9-1.2-1.5-1.5c-1.6-0.9-3.3-1.7-5-2.5
			c-0.1,0.2-0.2,0.3-0.3,0.5c-0.5-0.2-1-0.5-1.5-0.7c0.1-0.1,0.2-0.1,0.3-0.2c-1.2-0.7-2.4-1.3-3.6-2c-0.1,0.1-0.2,0.3-0.3,0.4
			c-0.1-0.1-0.2-0.2-0.3-0.2c0,0.1-0.1,0.1-0.1,0.2c0.1,0,0.3,0.1,0.4,0.1l0,0l0,0l0,0c1.1,1.9,2.2,3.8,3.3,5.7
			c0.4,0.8,0.9,1.5,1.3,2.3c1.1,2.4,2.2,4.8,3,7.2c0.3,1,0.6,1.9,0.9,2.9c0.2,1.1,0.4,2.1,0.6,3.2c0.2,1.3,0.4,2.6,0.7,3.9
			c0.1,0.7,0.2,1.4,0.3,2.1c0,0.3,0,0.6,0.1,1c0.1,0.9,0.1,1.8,0.2,2.8c0,6.9,0,13.8,0,20.7c0.2-0.2,0.4-0.4,0.6-0.6
			c0,0.2,0,0.5,0,0.7c2.7-3.4,4-7.3,4.4-11.4c0.2-2,0.2-4,0.3-6c-0.1,0-0.1,0.1-0.2,0.1c0-0.5,0-0.9-0.1-1.4
			c0.1-0.1,0.2-0.2,0.3-0.3V227c0.1-0.1,0.2-0.2,0.3-0.2c-0.3-3-0.7-5.9-1-8.9c-0.1-1-0.2-2.1-0.3-3.1
			C291.6,214.4,291.6,214,291.6,213.6z M279.9,197.1c0.1,0.4,0.4,0.9,0.6,1.5v0.1C280.2,198.3,280.1,197.7,279.9,197.1L279.9,197.1z
			"/>
	</g>
	<g id="delts">
		<path class="st1" d="M102.4,193.2c0.9,0.7,1.8,1.5,2.7,2.2c0.6-0.4,1.1-0.9,1.7-1.2c4.5-2.4,7.8-6.1,10.1-10.5
			c2.6-5,4.7-10.3,7.2-15.3c2-4,4.3-7.9,6.5-11.7c0.5-0.9,1.3-1.8,2.1-2.5c1.6-1.3,3.2-2.4,4.9-3.6c0-0.1-0.1-0.3-0.1-0.3
			c-2.3-1.2-4.3-2.7-5.5-5.1c-0.1-0.2-0.6-0.4-1-0.4c-3.6-0.6-7.1-0.2-10.5,0.9c-1.9,0.6-3.8,1.7-5.6,2.6l0,0
			c-0.8,0.7-1.5,1.4-2.3,2.1l0,0c-0.1,0.1-0.2,0.2-0.3,0.4c-0.1,0.1-0.2,0.2-0.4,0.3c-0.3,0.3-0.7,0.6-1,1l0,0
			c-0.2,0.3-0.4,0.5-0.6,0.8c-3.4,3.8-5.6,8.3-7.1,13c-2.5,7.7-2.8,15.5-0.9,23.5C102.5,190.4,103.3,191.8,102.4,193.2z"/>
		<path class="st1" d="M254.9,150.7c0.1,0.1,0.2,0.1,0.3,0.2c1.5,1.1,3.1,2.2,4.5,3.4c0.8,0.7,1.6,1.6,2.1,2.5
			c2.2,3.9,4.5,7.7,6.5,11.7c2.5,5,4.6,10.3,7.2,15.3c2.3,4.5,5.5,8.1,10.1,10.5c0.6,0.3,1.2,0.8,1.7,1.2c0.1-0.1,0.1-0.1,0.2-0.2
			c0.5,0.3,0.9,0.5,1.4,0.8c0.2-0.8,0.4-1.6,0.6-2.4c0.2-0.1,0.3-0.3,0.5-0.4c-0.1-0.2-0.2-0.4-0.3-0.6c0.3-1.1,0.5-2.2,0.8-3.3
			c-0.1,0-0.2,0-0.4,0v-0.1c0.3-1.4,0.6-2.9,0.8-4.3c0.3-0.5,0.5-1,0.6-1.4c0.1-1.9,0.1-3.8,0.1-5.6c0.2-7.7-2.6-14.5-6.1-21.1
			c-0.1,0.1-0.2,0.2-0.2,0.3c-0.2-0.4-0.5-0.7-0.7-1.1c0.1-0.2,0.2-0.3,0.3-0.5c-0.8-0.9-1.5-1.9-2.3-2.8c-2.1-2.7-4.5-5.1-7.9-6.1
			c-0.9-0.3-1.7-0.5-2.6-0.7c-0.1,0-0.2-0.1-0.2-0.1c-1.6-0.5-3.2-0.9-4.8-1c-0.1,0-0.2-0.1-0.4-0.1c-0.2,0-0.3,0-0.5,0
			c-1-0.1-2.1-0.1-3.1,0c-0.7,0-1.3,0-2,0c-0.1,0.1-0.2,0.2-0.3,0.2c0,0,0,0,0,0.1c-0.2,0.1-0.4,0.2-0.5,0.3
			c-1.2,2.4-3.3,3.8-5.5,5.1C254.9,150.3,254.9,150.5,254.9,150.7C254.9,150.6,254.9,150.6,254.9,150.7
			C254.9,150.6,254.9,150.6,254.9,150.7z"/>
		<path class="st1" d="M414.7,171.8c0.5-2.8,0.9-5.7,1.5-8.5c1.4-6.6,5-11.8,9.9-16c3.6-3.1,7.8-5,12.4-5.4c1.8-0.1,3.7,0.5,5.4,1.2
			c2.4,0.9,4.9,1.9,7,3.3c4.5,3,9.3,5.7,11.9,10.9c1.2,2.4,1,5.8-0.4,8.1c-2.2,3.5-5.1,6.2-8.4,8.4c-2,1.4-4.4,2.3-6.7,3.2
			c-5.1,1.9-10.3,3.5-15.3,5.6c-2.7,1.1-5.2,2.9-7.7,4.5c-2.8,1.9-5.4,4-8,6.1c-1.1,0.9-2,2.1-3.1,3c-0.4,0.3-1.3,0.5-1.8,0.2
			c-0.4-0.2-0.6-1.1-0.5-1.6c0.1-1.3,0.4-2.5,0.6-3.8c0.1-0.3,0.1-0.6,0.2-0.9c0.8-2.5,1.6-5.1,2.3-7.6c0-0.3,0.1-0.5,0.1-0.8
			c0.1-2.1,0.1-4.2,0.2-6.2C414.5,174.4,414.6,173.1,414.7,171.8z"/>
		<path class="st1" d="M597.6,171.8c-0.5-2.8-0.9-5.7-1.5-8.5c-1.4-6.6-5-11.8-9.9-16c-3.6-3.1-7.8-5-12.4-5.4
			c-1.8-0.1-3.7,0.5-5.4,1.2c-2.4,0.9-4.9,1.9-7,3.3c-4.5,3-9.3,5.7-11.9,10.9c-1.2,2.4-1,5.8,0.4,8.1c2.2,3.5,5.1,6.2,8.4,8.4
			c2,1.4,4.4,2.3,6.7,3.2c5.1,1.9,10.3,3.5,15.3,5.6c2.7,1.1,5.2,2.9,7.7,4.5c2.8,1.9,5.4,4,8,6.1c1.1,0.9,2,2.1,3.1,3
			c0.4,0.3,1.3,0.5,1.8,0.2c0.4-0.2,0.6-1.1,0.5-1.6c-0.1-1.3-0.4-2.5-0.6-3.8c-0.1-0.3-0.1-0.6-0.2-0.9c-0.8-2.5-1.6-5.1-2.3-7.6
			c0-0.3-0.1-0.5-0.1-0.8c-0.1-2.1-0.1-4.2-0.2-6.2C597.8,174.4,597.7,173.1,597.6,171.8z"/>
		<path class="st1" d="M465.7,205.9c-1.8,0-3.5,0.1-5.3,0c-3.5-0.3-6.5-2.1-9.4-4.3c-1.5-1.1-2-2.8-2.1-4.7c-0.2-2.5-0.1-5-0.1-7.5
			c0-1.2-0.2-2.4-0.2-3.6c0-3.4,1.2-4.5,3.6-2.8c6.2,4.4,12.4,8.9,18.6,13.4c2,1.4,4,2.9,5.8,4.7c0.6,0.6,1.1,2,1,2.9
			c-0.1,0.7-1.2,1.5-2,1.6c-3.3,0.4-6.6,0.5-9.9,0.7C465.7,206.1,465.7,206,465.7,205.9z"/>
		<path class="st1" d="M470.4,174.6c-0.2,5.1,0.8,10,1.9,14.9c0.1,0.6,0.6,1.1,0.8,1.8c0.1,0.5,0.1,1,0.2,1.6
			c-0.4,0-0.9,0.2-1.1-0.1c-3.2-3-6.3-6.2-9.5-9.2c-1.7-1.6-3.6-2.9-5.3-4.5c-0.6-0.5-1-1.7-1.2-2.7c-0.1-0.4,0.8-1.4,1.3-1.6
			c3.2-1.2,5.9-3.7,8.5-6.6c1-1.1,1.9-2.6,2.8-3.9c0.6-0.9,1.1-0.8,1.1,0.6C470,168.1,470.2,171.3,470.4,174.6z"/>
		<path class="st1" d="M546.6,205.9c1.8,0,3.5,0.1,5.3,0c3.5-0.3,6.5-2.1,9.4-4.3c1.5-1.1,2-2.8,2.1-4.7c0.2-2.5,0.1-5,0.1-7.5
			c0-1.2,0.2-2.4,0.2-3.6c0-3.4-1.2-4.5-3.6-2.8c-6.2,4.4-12.4,8.9-18.6,13.4c-2,1.4-4,2.9-5.8,4.7c-0.6,0.6-1.1,2-1,2.9
			c0.1,0.7,1.2,1.5,2,1.6c3.3,0.4,6.6,0.5,9.9,0.7C546.6,206.1,546.6,206,546.6,205.9z"/>
		<path class="st1" d="M541.9,174.6c0.2,5.1-0.8,10-1.9,14.9c-0.1,0.6-0.6,1.1-0.8,1.8c-0.1,0.5-0.1,1-0.2,1.6
			c0.4,0,0.9,0.2,1.1-0.1c3.2-3,6.3-6.2,9.5-9.2c1.7-1.6,3.6-2.9,5.3-4.5c0.6-0.5,1-1.7,1.2-2.7c0.1-0.4-0.8-1.4-1.3-1.6
			c-3.2-1.2-5.9-3.7-8.5-6.6c-1-1.1-1.9-2.6-2.8-3.9c-0.6-0.9-1.1-0.8-1.1,0.6C542.3,168.1,542.1,171.3,541.9,174.6z"/>
	</g>
</g>
</svg>
